<svg id="Layer_1" data-name="Layer 1" xmlns="http://www.w3.org/2000/svg" viewBox="0 0 534.21 533.93"><defs><style>.cls-1{fill:#288543;}.cls-2{fill:#db2a2a;}.cls-3{fill:#ef8125;}.cls-4{fill:#0b0b0b;}</style></defs><title>Book Now Logo</title><path class="cls-1" d="M99,323c-1.8-8-3.94-15.91-5.32-24a160.7,160.7,0,0,1-1.73-33,174.86,174.86,0,0,1,40.59-105.33,174.15,174.15,0,0,1,78.24-53.9,171.84,171.84,0,0,1,63.76-9.35Q332,99.88,377.3,135.58c2.48,2,4.76,4.17,7.13,6.26a6.11,6.11,0,0,0-1.07,1.41,91.93,91.93,0,0,1-12.49,23.06c-4,5.43-8.21,10.68-12.32,16-1.61-4.74-3.25-9.47-4.83-14.22-1.27-3.85-3.2-5-7-3.74q-15.43,5-30.85,10Q279.67,186.18,243.43,198q-44,14.31-88,28.59c-3.92,1.27-4.86,3.07-3.6,7,3.69,11.47,7.46,22.91,11.11,34.39a18.56,18.56,0,0,1,.86,5.43c.08,10.61,0,21.21,0,31.82,0,.79-.12,1.57-.18,2.36-4.76,1.46-9.51,3-14.29,4.37s-9.41,2.71-14.14,3.94c-4,1-8,2-12.07,2.82-4.64.95-9.32,1.74-14,2.56C105.75,321.87,102.37,322.4,99,323Z"/><path class="cls-1" d="M415.16,177.45c3.49,6,7.29,11.85,10.42,18a166,166,0,0,1,14.85,43.87,177.94,177.94,0,0,1,2.5,49.84,176,176,0,0,1-92.14,139.19A172.05,172.05,0,0,1,300,446.27a168.16,168.16,0,0,1-44.06,2.46c-4-.32-7.9-.84-11.84-1.26,1.8-1.64,3.58-3.32,5.42-4.91,4.6-4,9.28-7.82,13.83-11.83,4.31-3.8,8.64-7.59,12.7-11.65,8.3-8.31,16.45-16.77,24.6-25.22q4.73-4.89,9.18-10,7.73-8.93,15.26-18a44.33,44.33,0,0,0,3-4.73c1.14,0,2.29-.1,3.43-.1,12.89,0,25.77,0,38.66,0,4.7,0,6.09-1.46,6.09-6.22q0-31.38,0-62.75c0-1.85.09-3.7.15-5.55.49-.42,1.16-.74,1.45-1.27,1.37-2.53,2.67-5.1,4-7.68,1.85-3.75,3.74-7.48,5.47-11.29,1.84-4,3.53-8.12,5.25-12.21,1.16-2.75,2.32-5.51,3.36-8.32,1.24-3.37,2.08-6.92,3.58-10.17,2.73-5.95,4.15-12.29,6.09-18.48.51-1.65.89-3.33,1.35-5,.94-3.39,2-6.75,2.82-10.15.56-2.17.85-4.41,1.33-6.61C412,191,413,186.74,414,182.47,414.36,180.79,414.77,179.12,415.16,177.45Z"/><path class="cls-2" d="M328.12,361.08a44.33,44.33,0,0,1-3,4.73q-7.54,9.09-15.26,18-4.45,5.13-9.18,10c-8.15,8.45-16.3,16.91-24.6,25.22-4.06,4.06-8.39,7.85-12.7,11.65-4.55,4-9.23,7.87-13.83,11.83-1.84,1.59-3.62,3.27-5.42,4.91-4.61-.73-9.27-1.22-13.81-2.21a173.88,173.88,0,0,1-58.39-24.35c-4.5-2.93-8.76-6.22-13.11-9.37a8.88,8.88,0,0,1-1.09-1.12c2.94-1.39,5.93-2.67,8.8-4.17,7.46-3.93,15-7.72,22.26-12a496.56,496.56,0,0,0,50.15-33.12c.88,0,1.75-.13,2.63-.13q39.2,0,78.38,0C322.65,361,325.38,361.05,328.12,361.08Z"/><path class="cls-3" d="M238.9,361.14a496.56,496.56,0,0,1-50.15,33.12c-7.26,4.27-14.8,8.06-22.26,12-2.87,1.5-5.86,2.78-8.8,4.17-3.57-3-7.31-5.74-10.67-8.92A177.46,177.46,0,0,1,111.21,354,189.41,189.41,0,0,1,99,324a3.6,3.6,0,0,1,0-1c3.38-.56,6.76-1.09,10.13-1.68,4.67-.82,9.35-1.61,14-2.56,4-.83,8.07-1.78,12.07-2.82,4.73-1.23,9.45-2.56,14.14-3.94s9.53-2.91,14.29-4.37c0,1.06.14,2.11.15,3.17q0,22,0,44c0,4.7,1.47,6.17,6.16,6.17q26.92,0,53.85,0C228.83,361,233.86,361.09,238.9,361.14Z"/><path class="cls-2" d="M415.16,177.45c-.39,1.67-.8,3.34-1.18,5-1,4.27-1.94,8.53-2.88,12.81-.48,2.2-.77,4.44-1.33,6.61-.86,3.4-1.88,6.76-2.82,10.15-.46,1.66-.84,3.34-1.35,5-1.94,6.19-3.36,12.53-6.09,18.48-1.5,3.25-2.34,6.8-3.58,10.17-1,2.81-2.2,5.57-3.36,8.32-1.72,4.09-3.41,8.18-5.25,12.21-1.73,3.81-3.62,7.54-5.47,11.29-1.28,2.58-2.58,5.15-4,7.68-.29.53-1,.85-1.45,1.27q-.06-6.88-.11-13.77c0-4.53-1.47-6-6.06-6-7.86,0-15.72,0-23.58,0h-8.12c4.47-1.94,9-3.41,13.59-4.9,8-2.62,16-5.21,24-7.88,3.47-1.16,4.45-3.15,3.36-6.49-1.87-5.77-3.8-11.51-5.65-17.28-1.55-4.85-3-9.73-4.53-14.59a6.81,6.81,0,0,1,.35-1.27c3.25-6.73,6.63-13.41,9.77-20.2a235.75,235.75,0,0,0,13.17-36.95c.53-1.93,1.14-3.84,1.72-5.76A152.77,152.77,0,0,1,412,172.6C413.13,174.17,414.12,175.83,415.16,177.45Z"/><path class="cls-4" d="M302.88,87.93c-3-.24-6-.53-9.05-.71a1.64,1.64,0,0,1-1.74-1.54c-1.56-7.24-3.17-14.48-4.76-21.71-.47-2.18-.91-4.37-1.42-6.83-1.69,1.77-2.05,4-2.89,5.93q-4.31,10-8.49,20a2.82,2.82,0,0,1-3.37,2c-2.67-.34-5.36-.48-8.11-.71-3.9-17.08-6.21-34.32-8.09-51.65,3.46.3,6.66.65,9.87.84,2.6.15,2.63.14,2.8,2.7.33,5.08.58,10.16,1.1,15.22.56,5.46,1.4,10.89,2.19,16.89.69-.77,1.28-1.17,1.5-1.72,3.54-8.58,7-17.19,10.58-25.87l9.42.83c1.81,9.31,3.64,18.7,5.57,28.65.9-.91,1.66-1.34,1.88-2q1.77-5.1,3.31-10.28c1.78-6,3.48-12.12,5.19-18.19a17.31,17.31,0,0,0,.28-2.12l12,1.12A458.45,458.45,0,0,1,302.88,87.93Z"/><path class="cls-4" d="M450.36,153.36l-29.13,14.22-5.49-9.91,46.1-21c1.93,3.59,3.64,6.76,5.58,10.35l-19.59,26,32.23-2.5,5.15,9.35c-13.65,10-28.08,18.87-42.66,28L437.71,198l27.42-16.84c-.09-.21-.17-.42-.26-.62-3.11.26-6.23.49-9.34.81-5.78.59-11.56,1.27-17.34,1.81a2.36,2.36,0,0,1-1.79-1c-1.16-1.85-2.14-3.81-3.27-5.89l17.6-22.39Z"/><path class="cls-4" d="M143.93,90.19l16.37,27.55-9.73,5.83L124.76,80.15a70.89,70.89,0,0,0,6.63-3.9,3,3,0,0,1,3.07-.34,197.87,197.87,0,0,1,26,10c2,.88,3.93,1.7,5.89,2.55l.41-.44C162,80,157.26,71.91,152.34,63.6c3.25-2,6.43-3.85,9.78-5.84l25.74,43.32c-2.57,1.58-4.85,3.13-7.29,4.37a3.73,3.73,0,0,1-2.87-.33c-5.26-2.63-10.37-5.58-15.7-8.05-5.79-2.7-11.77-5-17.67-7.47Z"/><path class="cls-4" d="M493.92,208.18c1.19,4.29,2.43,8.42,3.44,12.59a71.22,71.22,0,0,1,1.46,8.46c.53,4.51.18,9-2.31,12.9-4.09,6.4-12.69,7.36-18.62,2.18-.22.36-.58.68-.63,1.05-.76,5.11-5.61,8.13-10.25,8.91a19.22,19.22,0,0,1-6.33-.08c-3.76-.64-6.39-3-8.41-6.2a32.93,32.93,0,0,1-4.62-12.46c-.82-5-1.53-10-2.25-15.05a19.81,19.81,0,0,1,0-2.57Zm-38.06,19a35.68,35.68,0,0,0,.73,4.95,50.63,50.63,0,0,0,3,8.3c1.22,2.42,3.73,3,6.68,2.22a5.46,5.46,0,0,0,4.05-4.94c.36-4.5-.77-8.78-1.81-13.08Zm21.32-4.28c.25,1.45.41,2.48.6,3.5a22.53,22.53,0,0,0,.62,3.09,33.79,33.79,0,0,0,2.1,5.3c1,1.84,3,2.48,5.26,2a4.4,4.4,0,0,0,3.69-3.9c.67-4.1-.55-8-1.54-12.11Z"/><path class="cls-4" d="M38.52,344.12c-1.09-3.32-2.33-6.55-3.21-9.88a83.78,83.78,0,0,1-2.65-12.14c-.44-3.94-.17-8.13,1.77-11.64a11.85,11.85,0,0,1,7.7-5.67c4.48-1.15,8.12.33,11.5,3.22,1.25-8.54,9.73-13.34,18.11-10.46,4.65,1.59,7.28,5.21,9.28,9.4a52.08,52.08,0,0,1,4,14.15c.62,3.78,1,7.61,1.49,11.76ZM76,323.88c-.19-1.23-.3-2.18-.49-3.11-.71-3.32-1.35-6.67-3.29-9.57-1.65-2.47-3.82-3.32-6.56-2.56a5.67,5.67,0,0,0-4.45,5.49c-.22,4.45,1.2,8.59,2.24,12.77ZM44.26,331.4l10.62-2.53c-.48-2.07-.8-4.06-1.41-6a28.74,28.74,0,0,0-2.4-5.75c-1.1-1.89-3.29-2.39-5.57-1.74a4.67,4.67,0,0,0-3.37,4.26C41.87,323.69,43.06,327.43,44.26,331.4Z"/><path class="cls-4" d="M68.91,222c-3.94.31-7.76-.82-11.55-2.43A26.57,26.57,0,0,1,43,206.22a21.74,21.74,0,0,1-1.92-9.54c0-6.48,2.43-12.08,6.18-17.25,4.61-6.37,11.11-9,18.57-8.77a30.91,30.91,0,0,1,21,8.44c5.73,5.48,8.2,12.24,6.77,20.38a29.38,29.38,0,0,1-7.14,15.28A21.26,21.26,0,0,1,68.91,222Zm1.3-11.55a12,12,0,0,0,11.87-6.75c2.31-4.84,2.3-9.47-1-13.88-4-5.4-14.28-8.92-20.67-7-8.78,2.67-11.8,14.46-5.66,20.79A22.58,22.58,0,0,0,70.21,210.42Z"/><path class="cls-4" d="M214.5,92.89c-3.85-.22-7.51-.6-10.91-2.48a24.24,24.24,0,0,1-10-10.31,32.8,32.8,0,0,1-3.79-17.53,23,23,0,0,1,4.72-12.79c5.21-6.82,12.28-9.57,20.7-9.86a22.2,22.2,0,0,1,16.26,5.75,25.49,25.49,0,0,1,7.24,11.88c2,6.72,2.74,13.4,0,20.19-3,7.42-8.79,11.44-16.06,13.66A68.86,68.86,0,0,1,214.5,92.89Zm1-10.43c5.36.17,11-2.85,12.67-9.09,1.77-6.75.11-13.05-3.95-18.62-3.05-4.19-7.44-5.49-12.39-4.51s-8.53,4-9.71,8.91a21,21,0,0,0,4.95,19.77A10.21,10.21,0,0,0,215.5,82.46Z"/><path class="cls-4" d="M53.74,285.37c-4.21-.12-8.25-.49-12.16-2.33-6.19-2.92-10.72-7.21-12.93-13.78a27.42,27.42,0,0,1,1-20.57c3.78-8.37,10.54-12.7,19.73-13.48,6.58-.55,12.88.1,18.74,3.26,6.38,3.45,10,8.88,11.2,16,1.29,7.54.14,14.48-4.23,20.86a22.17,22.17,0,0,1-13.79,9.19A62.43,62.43,0,0,1,53.74,285.37Zm.06-38.89a53.33,53.33,0,0,0-7.07,1.07c-5.82,1.77-8.78,5.65-9.35,10.85-.67,6.05,2,10.89,7.43,13.23a22.19,22.19,0,0,0,16.45.77,12.16,12.16,0,0,0,8.48-10.93c.5-7.24-3.13-11.18-7.54-12.86A64.33,64.33,0,0,0,53.8,246.48Z"/><path class="cls-4" d="M97.08,140.66c11.33-2.44,22.88-2.39,34.81-1.2-.62.88-1.15,1.69-1.74,2.46q-2.82,3.77-5.68,7.48c-1,1.35-2.56.94-3.9.91-4.29-.09-8.58-.54-12.85-.37a86.53,86.53,0,0,0-10.31,1.5,4.65,4.65,0,0,0-1.25.7l16.44,12.72-7.12,9.06L65.7,143.2l7-9.1,15,11.46c-1.58-8.81-3-17-4.51-25.29l8-10.35.62.21Q94.48,125.37,97.08,140.66Z"/><path class="cls-4" d="M498.32,314.49c-.68,3.1-1.48,6-1.92,9-.22,1.46-.78,1.75-2.12,2-6.92,1.46-13.78,3.29-20.72,4.62-6.13,1.17-12.34,1.84-18.51,2.76-4,.61-8,1.26-12.43,2,.82-4.16,1.58-8,2.37-11.94,3.19-.4,6.3-.84,9.42-1.15a2.24,2.24,0,0,0,2.38-2.06c1.07-5.39,2.36-10.74,3.39-16.14a2.85,2.85,0,0,0-1.16-2.33c-2.64-1.68-5.42-3.14-8.43-4.83.76-3.62,1.55-7.38,2.47-11.73C468.77,294,483.91,303.55,498.32,314.49Zm-12.22,2.84L469,306.47c-1,4.84-1.95,9.35-2.94,14.12Z"/><path class="cls-4" d="M412.18,154.26,404,144.75c1.22-2.67,2.76-6.06,4.39-9.66l-14.15-13.52L384,126.92l-8.65-8c5.66-3,11.14-6.06,16.75-8.85,4.57-2.28,9.3-4.23,13.95-6.33,3.43-1.55,6.84-3.13,10.28-4.65A70.63,70.63,0,0,1,423,96.32a3.19,3.19,0,0,1,2.54.56c2.38,2,4.61,4.09,7,6.22C427.07,120.49,419.87,137.09,412.18,154.26Zm-9.84-37.54,10.4,9.93c2.66-6.38,5.19-12.45,7.88-18.88Z"/><path class="cls-4" d="M375.34,108.13l-4.43,8.39a13.69,13.69,0,0,1-1.88-.69c-5.28-2.8-10.55-5.64-15.82-8.45s-10.51-5.67-15.82-8.4c-1.34-.7-1.82-1.31-.65-2.51.06-.06.16-.12.18-.19,1.09-4.29,4.61-6,8.1-7.9,5.35-2.85,10.55-6,15.94-8.73,4.69-2.39,9.56-4.43,14.71-6.78L356.22,62.42c1.42-2.86,2.79-5.61,4.29-8.65l33.24,17.67a3.09,3.09,0,0,1-.14.4c-1.05,2.07-1.69,4.57-3.28,6.09s-4,1.82-6,2.66a251.66,251.66,0,0,0-29.07,14c-.73.41-1.43.87-2.43,1.49Z"/><path class="cls-3" d="M394.39,151.32c-.58,1.92-1.19,3.83-1.72,5.76A235.75,235.75,0,0,1,379.5,194c-3.14,6.79-6.52,13.47-9.77,20.2a6.81,6.81,0,0,0-.35,1.27c-1.6-4.71-3.23-9.41-4.77-14.15-2.06-6.33-4.05-12.69-6.06-19,4.11-5.32,8.35-10.57,12.32-16a91.93,91.93,0,0,0,12.49-23.06,6.11,6.11,0,0,1,1.07-1.41Z"/><path class="cls-4" d="M451.83,277.59V266.65H502v10.94Z"/><path class="cls-4" d="M202.28,487.19l-2.87-.82c.69-4.41,2.66-8.42,3-13-2.8.31-4,2.19-5.45,3.79a21.09,21.09,0,0,1-2.64,2.92,3.39,3.39,0,0,1-2.55.62c-.5-.13-1-1.29-1-2-.41-3.66-.69-7.33-1.07-11.54-.82.71-1.42,1-1.59,1.43-1.56,4-3.05,8-4.67,12.37l-3-.82,8-19.53c2.1-.12,3.11.8,3.35,2.58.6,4.42,1.18,8.84,1.83,13.77,1.84-2.06,3.47-3.93,5.16-5.74a41.91,41.91,0,0,1,4.85-4.85c.79-.61,2.26-.35,3.95-.55C205.66,473.33,204,480.18,202.28,487.19Z"/><path class="cls-4" d="M270.58,489.78c1.79-4,3.65-8.06,5.36-12.15.68-1.64,1.59-2.61,3.87-2.25,1.2,6.69,1.71,13.62,2.29,20.89l-2.94.32c-.46-5.26-.89-10.12-1.33-15l-.63-.09q-1.87,4.23-3.73,8.45a12.55,12.55,0,0,0-.58,1.73,2.84,2.84,0,0,1-3.41,2.33l-6.21-12.34-.41,0c-.24,5.08-.49,10.16-.75,15.46l-3,.18,1.12-21c1.71-1,2.79-.75,3.69,1C266.06,481.57,268.34,485.64,270.58,489.78Z"/><path class="cls-4" d="M407.76,447.76l-2.31,2.08c-1.77-2.29-3.47-4.49-5.18-6.68-.95-1.23-1.89-2.47-2.91-3.64-.28-.33-.84-.41-1.28-.6-.18.43-.6.91-.52,1.29.57,3.06,1.16,6.12,1.9,9.14.43,1.77,0,2.89-1.7,3.44l-11.6-6.52-.48.52,7.95,12.65-2.57,1.65-11-18c1.15-1.83,2.54-1.79,4.22-.85,4,2.24,8,4.41,12.23,6.7-.39-2.25-.74-4.5-1.16-6.73-.49-2.7-1-5.39-1.57-8.07-.37-1.76,1.65-1.44,2-3.18Z"/><path class="cls-4" d="M429.67,403.78l12.2,9.52-1.73,2.48-16.84-13,1.25-2.07h19.24L432,391.51l1.65-2.51,16.95,13.07-1.11,1.83-19.71-.63Z"/><path class="cls-4" d="M287.44,495.67c-.8-6.76-1.6-13.49-2.41-20.3a20.31,20.31,0,0,1,11.21-1.14c3.36.47,5.88,5.48,1.92,8.92,1.11.82,2.58,1.43,3.28,2.54s.59,2.6.65,3.94c.13,2.93-2,4.21-4.27,4.94A24.08,24.08,0,0,1,287.44,495.67Zm2.87-2.26c2.1-.31,3.83-.54,5.55-.84a5.06,5.06,0,0,0,1.46-.58,3.32,3.32,0,0,0,2-3.41c-.18-1.58-1-2.94-2.76-3.06-2.33-.17-4.67,0-7.23,0C289.69,488.33,290,490.65,290.31,493.41Zm-1.18-9.78c2.14-.44,4.15-.69,6.05-1.28a2.75,2.75,0,0,0,2-3.08,2.67,2.67,0,0,0-2.56-2.59c-2-.1-4.11,0-6.31,0C288.59,479.24,288.85,481.31,289.13,483.63Z"/><path class="cls-4" d="M173.82,474.56c-6.43.16-9.93-1.75-11.7-6.25-1.38-3.48-.38-6.85,1.28-9.92a12.38,12.38,0,0,1,3.79-4c5.92-4.08,14-.27,15.31,5.62,1.14,5.07-.87,9.29-4.57,12.69C175.76,474.66,175.68,474.56,173.82,474.56Zm-2.25-2.26a21,21,0,0,0,3.55-1.47,10.25,10.25,0,0,0,4.44-7.19c.64-3.69-.62-6.19-3.68-7.64a6.33,6.33,0,0,0-8.21,2.15,16.52,16.52,0,0,0-2.85,6.11C163.93,468.28,167.3,472,171.57,472.3Z"/><path class="cls-4" d="M381.79,459.8c.33,4.22-1.29,7.22-4.42,9.14s-6.39,2.77-10,.78c-5.59-3-8.36-10.35-5.9-15.27,3-5.9,11.46-8.67,17-2.22C380.69,454.88,381.77,457.3,381.79,459.8Zm-18.12-1.11a11.27,11.27,0,0,0,5.27,8.37,6.67,6.67,0,0,0,9.65-3.67c1.31-3.8-1.7-9.91-5.71-11.57C368.57,450,363.63,453.41,363.67,458.69Z"/><path class="cls-4" d="M122.07,441.12c-4.15.37-6.47-2.17-8.37-5.13-2.91-4.52-1.41-8.53,1.58-12,2.09-2.38,4.41-4.35,7.78-4.65a10.63,10.63,0,0,1,10.26,6c1.82,3.81,1.14,7.33-1.74,10.89C129.16,439.22,126.2,441.53,122.07,441.12ZM131.29,429a6.63,6.63,0,0,0-8.63-6.45,11.14,11.14,0,0,0-6.71,6.33c-1.68,3.73.34,7.53,4.11,9.16C124.2,439.87,131.43,434.17,131.29,429Z"/><path class="cls-4" d="M110.33,400.46c2.15,2.73,4.42,5,5.93,7.71,2.35,4.19,1.53,8.59-1.89,11.92s-7.22,4.62-11.67,3A13.91,13.91,0,0,1,98,419.67,46.65,46.65,0,0,1,94,414.41ZM98,415.13c4.73,6.54,8.83,7.42,13.68,3.11,4.27-3.8,4.6-7.86-1.39-13.63Z"/><path class="cls-4" d="M256.58,496.59l-3.24.21c-.62-1.84-1.26-3.77-1.91-5.73-2.54-.24-5.12-.44-7.7-.73a2.21,2.21,0,0,0-2.66,1.78c-.31,1-.78,1.94-1.23,3h-3.46q4.55-9.4,9-18.72c.56-1.16,1.2-2,2.78-1.84s1.62,1.24,2,2.33C252.25,483.4,254.38,489.85,256.58,496.59Zm-8.8-18.69L243,487.7l8,.68C249.91,484.81,248.92,481.6,247.78,477.9Z"/><path class="cls-4" d="M426.53,430.66l-2.42,2.1-9.42-20.34c2.15-2.57,2.14-2.55,5-1.46,5.12,2,10.26,3.91,15.35,5.93a17.64,17.64,0,0,1,2.81,1.78,5.68,5.68,0,0,1-1.26,1.52,3.41,3.41,0,0,1-2,.34,4.19,4.19,0,0,1-2.16-.69c-1.58-1.36-2.68-.57-3.76.61-1.53,1.69-3.05,3.39-4.51,5Zm1.81-13.18-10.2-4.16,4.41,9.5Z"/><path class="cls-4" d="M83.63,400.69l-2.09-2.75,3.6-4.55-5.09-8c-1.18.22-2.19.4-3.2.6-2.45.49-2.45.5-4.2-2.24l22.52-4.24L97,382.11Zm-.95-16.15L87,391.3l6-8.3-.31-.42Z"/><path class="cls-4" d="M333.64,487l-3.12.94-3.39-4.65c-2.62.69-5.38,1.37-8.1,2.18a1.9,1.9,0,0,0-1,1.26c-.32,1.44-.45,2.92-.7,4.7l-2.85,1.05c.09-1.5.13-2.54.21-3.59,0-.61.17-1.21.24-1.81.57-5.31,1-10.64,1.79-15.92.14-1,1.38-1.79,2.3-2.9C324.65,474.18,328.91,480.55,333.64,487Zm-7.87-6-6.25-8.11-.46.27-1,10.05Z"/><path class="cls-4" d="M413.85,442.28l-2.28,2.07L401,432c-.12-.14-.22-.29-.34-.42-3.31-3.67-3.34-3.79.37-6.79a24.38,24.38,0,0,1,4.34-2.73c3.21-1.6,6.33-1,8.23,1.5,2.19,2.85,2,6-.57,8.79-1.36,1.49-2.79,2.92-4.12,4.32ZM401.64,428l5.57,6.43c1.08-1,2-1.83,2.87-2.68a10.15,10.15,0,0,0,.87-1c1.46-1.82,1.52-3.6.18-5.2a3.69,3.69,0,0,0-5.14-.87A49.52,49.52,0,0,0,401.64,428Z"/><path class="cls-4" d="M218.69,491.75c3.55-7,9.63-10.74,14.33-16.26-1.47-.35-3-.76-4.58-1.08-1.17-.24-2.41-.21-3.53-.56-.67-.22-1.72-.21-1.69-1.56,0-1.09.39-1.52,1.33-1.35,4.41.84,8.81,1.74,13.17,2.61.52,1.58-.38,2.41-1.3,3.26l-12.93,12,.12.73c1.84.48,3.67,1,5.53,1.42a38.58,38.58,0,0,0,3.88.57c1.47.16,2,.89,1.48,2.61C229.41,494.2,224.49,492.68,218.69,491.75Z"/><path class="cls-4" d="M355.74,456.67l.55,2.33c-4.65.23-8.7,1.5-9.53,6.71-.44,2.75.91,5.28,2.56,7.49,2.61,3.5,6.08,5.09,12.86-.83l1.84,1.75c-3.25,4.14-10,6.32-13.88,4.54-3.72-1.7-7.65-10.12-6.5-14C345.29,459.09,349.73,456.5,355.74,456.67Z"/><path class="cls-4" d="M156.56,464.16c-.77,2.48-.82,2.62-3.23,1.82-6.4-2.14-9.14-6.12-8.13-12.56a12,12,0,0,1,2.31-4.83c5.79-8,14.84-4.87,18.31.81a6.53,6.53,0,0,0,.44.53l-2.25,2c-2.39-3.75-5.44-6.13-9.94-4.63-3.38,1.12-6,6.08-5.88,10C148.3,459.83,150.53,462.7,156.56,464.16Z"/><path class="cls-4" d="M444.68,372.37c1.65,3.3,3.55,6.49,4.87,9.91s3.86,4.75,6.6,6.27c.75.42,1.44.95,2.12,1.4-1.59,2.75-1.59,2.76-3.9,1.29a15.15,15.15,0,0,1-1.19-1,12.41,12.41,0,0,0-8.72-2.47c-3.11.13-6.24,0-9.54,0,1.23-3.46,1.34-3.7,4.25-3.14,2.69.53,5.56.12,8.77.12-1.45-2.76-2.78-5.32-4.14-7.87S442.47,374.41,444.68,372.37Z"/><path class="cls-4" d="M137.11,432l1.95-2.1,12.77,9.87c-1.4,2.22-1.4,2.21-3.44.65-1.08-.83-2.19-1.62-3.39-2.51l-11.28,14.47c-2.62-1.26-2.77-1.56-1.27-3.57,2-2.61,4-5.13,6-7.67.86-1.07,1.81-2.07,2.64-3.16,1.11-1.47.88-2.65-.61-3.69-.55-.39-1.07-.83-1.63-1.21S137.73,432.35,137.11,432Z"/><path class="cls-4" d="M307.76,493.3c-1.35-7.18-2.63-14.05-4-21.18l3.07-.28c1.29,6.86,2.56,13.63,3.86,20.53Z"/><path class="cls-3" d="M251.26,351.91c-1.23,0-2.46.1-3.69.1H172.79v-5.87q0-17,0-33.9c0-2.64.16-5.27.25-7.91.79-.36,1.57-.76,2.38-1.08q6.65-2.6,13.3-5.16c2.9-1.12,5.82-2.22,8.73-3.32q.06,14.14.13,28.29c0,.88,0,1.76,0,2.64a4.32,4.32,0,0,0,3.79,4.07,4.21,4.21,0,0,0,4.83-3.12,10.61,10.61,0,0,0,.3-2.87q0-15.06,0-30.14c0-1.06.07-2.11.11-3.17a2.1,2.1,0,0,0,.51-.11c6-2.89,12-5.69,17.88-8.7,3.59-1.84,7-4,10.51-6l65.67,0q12,0,24.1,0c1,0,2.09.15,3.14.23-.48.72-.9,1.47-1.44,2.14-2.63,3.23-5.29,6.43-7.93,9.65-1.15,0-2.29.11-3.44.11H231.08c-1.24,0-2.48-.07-3.71,0a4.57,4.57,0,0,0-4,3.71,4.19,4.19,0,0,0,2.18,4.4,9.42,9.42,0,0,0,3.78.79q37.13.06,74.24.05c2.29,0,4.58.1,6.87.16-2.78,3.05-5.41,6.26-8.37,9.11q-15.22,14.65-30.66,29.08c-2.87,2.7-6,5.1-9.07,7.62Q256.84,347.32,251.26,351.91Zm-1.94-38.18c7,0,14,0,20.95,0,2.51,0,4.25-1.32,4.73-3.4a4.34,4.34,0,0,0-4.42-5.5q-21.34-.09-42.69,0a4.46,4.46,0,1,0,.22,8.91C235.18,313.76,242.25,313.73,249.32,313.73Zm-51.71,27.33c0,.35,0,.79,0,1.23a4.77,4.77,0,0,0,3.67,4.22,4.52,4.52,0,0,0,4.73-2.58,8.58,8.58,0,0,0,.47-3.07c0-3.08-1.8-5-4.53-5A4.46,4.46,0,0,0,197.61,341.06Z"/><path class="cls-1" d="M253.66,266.42c-1,.08-1.93.23-2.9.23l-77.15,0c-.52,0-1-.07-1.78-.12-3.49-10.74-7-21.48-10.56-32.53l23.54-7.66c1.46,4.4,2.88,8.64,4.29,12.88,1.6,4.84,3.13,9.7,4.82,14.51a4.19,4.19,0,0,0,5.22,2.88,4.3,4.3,0,0,0,3.22-5.27,10.47,10.47,0,0,0-.46-1.51q-1.83-5.64-3.67-11.28c-1.61-4.92-3.21-9.83-4.9-15L346,174a15.4,15.4,0,0,1,.8,1.66q2.25,6.75,4.45,13.52a7.31,7.31,0,0,1,.15,1.56,4.76,4.76,0,0,0-1.05.62c-3.26,3.24-6.48,6.51-9.74,9.76-2.5,2.51-5,5-7.55,7.48-1.05.42-2.09.88-3.17,1.24-4.22,1.42-8.47,2.75-12.68,4.22-2.74,1-3.94,3.39-2.84,5.8a13.26,13.26,0,0,0,2.07,2.61c-8.82,6.64-17.52,13.44-26.47,19.9a386.66,386.66,0,0,1-33.65,21.8A20.31,20.31,0,0,0,253.66,266.42ZM219,237.27c.54-.15,1.31-.33,2.06-.58q15.8-5.15,31.58-10.29l65-21c6.27-2,12.51-4.14,18.78-6.18a4.42,4.42,0,0,0,3.31-4,3.67,3.67,0,0,0-2.31-4.08,7.74,7.74,0,0,0-4.57-.06c-16.49,5.26-32.95,10.67-49.42,16l-61.2,19.84a52.81,52.81,0,0,0-5.45,2,4.11,4.11,0,0,0-2.25,5.08A4.73,4.73,0,0,0,219,237.27Zm5.52,16.07c.33-.08,1.1-.24,1.84-.48l28.84-9.31c3.68-1.19,7.37-2.33,11-3.63a4.24,4.24,0,0,0,2.95-4.76,4.2,4.2,0,0,0-3.81-3.79,7.38,7.38,0,0,0-2.81.41q-14.06,4.53-28.09,9.11c-4,1.31-8,2.56-12,4a4.33,4.33,0,0,0-2.85,4.82C220,251.89,221.79,253.35,224.53,253.34Z"/><path class="cls-2" d="M251.26,351.91q5.58-4.61,11.13-9.21c3-2.52,6.2-4.92,9.07-7.62q15.42-14.44,30.66-29.08c3-2.85,5.59-6.06,8.37-9.11.88-.06,1.75-.16,2.63-.16h34.66c.89,0,1.77,0,2.65,0a4.42,4.42,0,0,0,4.32-4.71c-.08-2.51-1.73-4.11-4.45-4.23-1.32-.06-2.64,0-4,0l-27.23-.1c2.64-3.22,5.3-6.42,7.93-9.65.54-.67,1-1.42,1.44-2.14a16,16,0,0,1,1.81-.24q17.76,0,35.5,0c.42,0,.85,0,1.5.09v29.66a13,13,0,0,0-1.85,1.94c-4.54,7.15-9,14.33-13.53,21.51-1.08,1.72-2.11,3.46-3.17,5.19-2.25.21-4.5.36-6.74.65a3.69,3.69,0,0,0-1.83.91c-2.62,2.36-1.9,5.74,1.65,7.93-.86,1.13-1.79,2.21-2.54,3.41-1,1.63-1.91,3.36-2.85,5-5.57,0-11.15.08-16.72.08H253.64C252.85,352,252.06,351.94,251.26,351.91Zm87.61-47.15h0c-3.8,0-7.6,0-11.4,0-3,0-4.72,1.8-4.7,4.55a4.32,4.32,0,0,0,4.6,4.39q11.26.07,22.54,0c3,0,4.84-1.76,4.86-4.44s-1.84-4.5-5-4.53C346.11,304.74,342.49,304.76,338.87,304.76Zm-16.19,29.78H319.5a4.42,4.42,0,0,0-4.65,4.3,4.36,4.36,0,0,0,4.39,4.62c2.47.09,4.95.08,7.42,0a4.45,4.45,0,1,0,0-8.9C325.33,334.48,324,334.54,322.68,334.54Z"/><path class="cls-3" d="M333.08,208.59c2.52-2.49,5.05-5,7.55-7.48,3.26-3.25,6.48-6.52,9.74-9.76a4.76,4.76,0,0,1,1.05-.62c1,2.78,2.16,5.54,3.09,8.36,2.86,8.65,5.65,17.32,8.45,26a9.82,9.82,0,0,1,.24,1.55,7.86,7.86,0,0,0-1,1.14q-4,6.33-7.88,12.69c.06-4.34-2.92-6.56-7.51-4.88-1.81.66-3.67,1.17-5.48,1.85a4.58,4.58,0,0,0-3,4.22,4.38,4.38,0,0,0,2.53,4c1.61.79,3.23.32,4.85-.21,2.07-.68,4.19-1.23,6.28-1.84a5.88,5.88,0,0,1-.49,1.43c-2.07,3.13-4.18,6.23-6.29,9.33-3.64,1.25-7.26,2.53-10.92,3.73q-12.53,4.1-25.07,8.09a9.74,9.74,0,0,1-2.84.44q-25.28,0-50.56,0a16.52,16.52,0,0,1-2.09-.24,20.31,20.31,0,0,1,2.68-2.26A386.66,386.66,0,0,0,290,242.36c8.95-6.46,17.65-13.26,26.47-19.9a54.27,54.27,0,0,0,5.41-.62,41.35,41.35,0,0,0,4.78-1.51c5.09-1.68,10.21-3.27,15.25-5.08,2.69-1,3.74-3.42,2.8-5.66-1.06-2.52-3.31-3.45-6.08-2.58C336.79,207.59,334.93,208.07,333.08,208.59Zm-11.91,44.79c2.18-.76,5.33-1.6,8.25-2.93,2.1-.94,2.65-3.32,1.83-5.45a4.28,4.28,0,0,0-4.65-2.65,75.72,75.72,0,0,0-8.49,2.75,4.31,4.31,0,0,0-2.27,4.84C316.46,252.19,318,253.38,321.17,253.38Z"/><path class="cls-1" d="M336.42,351.93c.94-1.68,1.83-3.41,2.85-5,.75-1.2,1.68-2.28,2.54-3.41,2.82,0,5.65.06,8.48,0a4.33,4.33,0,0,0,4.44-4.3,4.4,4.4,0,0,0-4.1-4.64,15.7,15.7,0,0,1-1.9-.52c1.06-1.73,2.09-3.47,3.17-5.19,4.5-7.18,9-14.36,13.53-21.51a13,13,0,0,1,1.85-1.94q0,15.88.09,31.77c0,4.85,0,9.69,0,14.81Z"/><path class="cls-1" d="M197.45,294.77c-2.91,1.1-5.83,2.2-8.73,3.32q-6.66,2.57-13.3,5.16c-.81.32-1.59.72-2.38,1.08-.1-1.12-.27-2.24-.28-3.36,0-7.75,0-15.51,0-23.27v-2h24.72Z"/><path class="cls-2" d="M345.14,254.39c2.11-3.1,4.22-6.2,6.29-9.33a5.88,5.88,0,0,0,.49-1.43l2.37-3.16q3.93-6.34,7.88-12.69a7.86,7.86,0,0,1,1-1.14c2.22,6.53,4.43,13.06,6.73,19.84-3.21,1.07-6.09,2.05-9,3C355.69,251.12,350.41,252.75,345.14,254.39Z"/><path class="cls-1" d="M235.56,275.65c-3.49,2-6.92,4.17-10.51,6-5.9,3-11.91,5.81-17.88,8.7a2.1,2.1,0,0,1-.51.11V275.65Z"/></svg>