<svg id="Layer_1" data-name="Layer 1" xmlns="http://www.w3.org/2000/svg" xmlns:xlink="http://www.w3.org/1999/xlink" viewBox="0 0 538.22 455.12"><defs><style>.cls-1{fill:#fff;}.cls-2{fill:url(#linear-gradient);}.cls-3{opacity:0.21;fill:url(#linear-gradient-2);}.cls-4{fill:#5cb567;}.cls-5{fill:#faed24;}.cls-6{fill:#e9262c;}.cls-7{fill:#010101;}.cls-8{fill:#231f20;}</style><linearGradient id="linear-gradient" x1="263.63" y1="433.4" x2="263.63" y2="23.41" gradientUnits="userSpaceOnUse"><stop offset="0" stop-color="#fff"/><stop offset="1" stop-color="#a3c9eb"/></linearGradient><linearGradient id="linear-gradient-2" x1="263.63" y1="435.74" x2="263.63" y2="242.35" gradientUnits="userSpaceOnUse"><stop offset="0" stop-color="#fff"/><stop offset="1"/></linearGradient></defs><title>DotCom</title><circle class="cls-1" cx="263.63" cy="227.56" r="227.56"/><circle class="cls-2" cx="263.63" cy="228.41" r="204.99"/><path class="cls-3" d="M271.6,288.82c-83.07,0-158.21-17.78-212.34-46.47,6,107.82,95.34,193.39,204.66,193.39,106.65,0,194.26-81.44,204.07-185.52C415.49,274.25,346.8,288.82,271.6,288.82Z"/><path class="cls-4" d="M281.38,231.94c0,.56,0,1.08,0,1.6a2.78,2.78,0,0,0,.74,2.08,4.37,4.37,0,0,1,.53,2.11,3.55,3.55,0,0,1-.27,1.21c1.6.34.68,1.89,1.35,2.65l2.14-2c1.12,1.52,2.07,2.78,3,4.08a2.36,2.36,0,0,1,.35,1.25,2.84,2.84,0,0,0,1,2.62c.19.14.19.59.21.9a3.18,3.18,0,0,0,1.72,2.63c.18.1.39.28.55.25,1.77-.38,3.71.11,5.36-1,1.15-.8,2.38-1.51,3.59-2.22a1.37,1.37,0,0,1,1-.17,18.57,18.57,0,0,1,1.86.71c-.21,1-1.33,1.65-.71,2.84.49.94,1.29.76,2,.72.27,0,.71-.64.71-1,0-7.22,0-14.44,0-21.66a1.54,1.54,0,0,0-.12-.38,2.87,2.87,0,0,1-3.43.32,1.33,1.33,0,0,0-1.82,1c-.13.42.33,1,.59,1.53.1.2.38.3.62.47-.39,1.14-1,1.72-2.27,1.29-1.1-.37-2.32-.1-3.36-1.11-.53-.51-1.89-.1-2.85-.26a2.27,2.27,0,0,1-1.3-.77,10.83,10.83,0,0,1-1.16-2,3.48,3.48,0,0,0-1.88-1.73c-.75-.32-1.26-1.3-1.76-2.07a2.09,2.09,0,0,0-1.8-1.22c-.2,0-.5,0-.58-.14-.63-1-1.64-1.11-2.68-1.37-.58-.15-1-1-1.56-1.59l1.39-.76c-.14-.3-.3-.61-.43-.93-.21-.53-.4-1.06-.6-1.59s-.38-.9-.55-1.36a1.79,1.79,0,0,1-.21-.87c.26-1.19.62-2.36.89-3.55.47-2.06.63-4.24,1.44-6.15.74-1.76.62-4.06,2.8-5.13.58-.29.94-1,.29-1.93a7.9,7.9,0,0,1-.79-3A13,13,0,0,0,285,194a7.37,7.37,0,0,1-.25-4.9c.33-1.17.5-2.39.75-3.59s1-2.56-.62-2.81c-.18-1.19-.26-2.1-.47-3a33.34,33.34,0,0,0-1.16-4A4.13,4.13,0,0,0,282,174.2c-.7-.55-.55-1,0-1.49a1,1,0,0,1,.19-.16c3.06-1.66,5-4.54,7.38-6.9,1.88-1.84,2.84-3.84,1.48-6.41a5.53,5.53,0,0,1-.28-.81,2.2,2.2,0,0,1,0-.38c.36-.05.74-.12,1.13-.16q15.57-1.68,31.13-3.37c3.05-.33,3-.38,4.91,2,1.42,1.79,2.85,3.57,4.22,5.4.55.73,1,1.56,1.6,2.62l1.57-3.23c2.08-.24,3.82,1.58,5.85,2.3.28,1.08.49,2.19.87,3.23.11.29.69.53,1.09.59.91.12,1.84.13,2.76.17a2.17,2.17,0,0,1,2,1.38,2.23,2.23,0,0,0,2.3,1.29,5.43,5.43,0,0,1,3.75,1.06c.76.59,2.08.5,3.16.59a1.25,1.25,0,0,1,1.25.9,2.13,2.13,0,0,0,1.06,1,8.15,8.15,0,0,0,2,.56,3.81,3.81,0,0,1,3,1.95c.32.59,1.32.83,2,1.2.86.44,1.88.7,1.78,2,0,.15.23.3.32.47.21.39.64.85.56,1.18a2.18,2.18,0,0,0,1,2.34l2.11-1.67a13.76,13.76,0,0,1,.87,3.09c0,1.07.75,1.4,1.41,1.79.85.51,1.17,1.07.64,2-1,1.64-.3,2.87,1.07,3.81a5.47,5.47,0,0,1,2.31,4.95,2.53,2.53,0,0,0,.43,1.22c.52.87,1.11,1.7,1.68,2.54-2,2.76-4.5,4.73-8.2,5,1.46,1,1.28,2.28,1.28,3.56a.39.39,0,0,0,.06.24c2.05,2.51.12,4.53-.81,6.77l-1.06-.33c-.11.8-.27,1.6-.31,2.41a.91.91,0,0,0,.46.73c1,.27,1.22.95,1.21,1.85,0,.6.09,1.21.14,1.81,0,.12.11.3.06.35-1.35,1.44,0,3.87-1.92,5.13a.92.92,0,0,0,0,.84,3.57,3.57,0,0,1,1.33,2.31,1.67,1.67,0,0,0,1.81,1.3,17.33,17.33,0,0,1,1.81.14c-.37.67-.66,1.18-.93,1.7-.16.31-.27.65-.44,1s-.25.54-.46.63c-1.19.48-2.42.85-3.59,1.38a15.31,15.31,0,0,0-2,1.38l-1.41-.69a3.9,3.9,0,0,0-1.34,4.65,3.22,3.22,0,0,1,0,3c-.08.13-.19.33-.15.46.77,2.24-.7,4.09-1.24,6-.3,1.09-1.58,2-2.52,2.8a6.59,6.59,0,0,1-1.66.82c.53.63,1.87-.22,1.93,1a16.6,16.6,0,0,1-.2,2.23c1.88.64,2.44,2.82,3.59,4.35a20,20,0,0,1,2.18-.74c.94-.21,1.47.37,1.68,1.2s-.62.84-1.09,1c-7.63,2.07-15.32,3.91-22.86,6.26-2.88.89-6,1.53-8.45,3.6a3,3,0,0,1-1.22.5c-3,.68-6,1.22-8.93,2-2.74.75-5.4,1.77-8.08,2.72a24.57,24.57,0,0,0-2.69,1.17c-.67.33-1.78.66-1.87,1.13a4.2,4.2,0,0,0,.6,3.61,6.39,6.39,0,0,1,1.82,4.17,27.62,27.62,0,0,1-.52,3.45c-.82,0-1.54,0-2.26,0a2.37,2.37,0,0,0-1,.16c-.59.31-1,.35-1.47-.23a2,2,0,0,0-1.31-.39,20,20,0,0,1-2.9,0,6.77,6.77,0,0,0-5.06.72,1.19,1.19,0,0,1-.68.22c-3.07-.43-5.48,1.4-8,2.53-1.46.64-2.22,2.53-4.13,2.75-.3,0-.64.84-.73,1.34a31.81,31.81,0,0,0-.57,4.46c-.07,2-.62,3.44-2.62,4.21-2.24.87-4.42,1.9-6.62,2.87a6.39,6.39,0,0,0-2.05,1,17.85,17.85,0,0,1-5.93,3.78c-2.85,1.24-4.5,3.59-5.65,6.3a8.58,8.58,0,0,1-2.88,3.79,27.51,27.51,0,0,0-6.74,7.15,7.86,7.86,0,0,1-6.33,3.44,3.67,3.67,0,0,0-1.34.42,1.85,1.85,0,0,1-2.4-.3,5.11,5.11,0,0,0-4.51-1.65c-1.85.31-3.72.46-5.58.73a4.32,4.32,0,0,1-3.38-.84,7.21,7.21,0,0,0-4-1.49c-4.34.1-7.56-1.68-10.28-4.91a8,8,0,0,0-3.47-2.15,34.35,34.35,0,0,0-5-1,43.82,43.82,0,0,1-5-1,9.45,9.45,0,0,0-4.92-.19c-3,.61-5.94,1.07-8.89,1.68a4.49,4.49,0,0,1-3.65-.93c-4.94-3.48-9.86-7-13.63-11.81-.82-1-2-1.8-2.77-2.89a11.53,11.53,0,0,0-2.33-3,5.81,5.81,0,0,1-1.21-1.8,11,11,0,0,0-1.24-2.36,6.67,6.67,0,0,1-1.69-5.11c.06-19.18,0-38.35,0-57.52,0-1.61,0-1.6,1.56-1.6l35.25.07H202c.47-.73.3-1.14-.39-1.62a2.32,2.32,0,0,1-1-1.55c-.21-3.08.05-6.05,2.7-8.24,0-.1,0-.25,0-.33-2.17-2.85-1.88-6.09-1.55-9.36a12.71,12.71,0,0,0-.25-2,8.64,8.64,0,0,1-.08-2.58c.37-1.49,1.12-2.9,1.46-4.39a9.44,9.44,0,0,0-.19-2.73c-.06-.67-.11-1.34-.16-2l.36-.08-.73-.92.7-3c1.27-.32,1.89.24,2.19,2.28,1.07.26,2.17.51,3.25.81a.89.89,0,0,1,.58.5c.4,1.57,1.2,3.18-.1,4.69a13.59,13.59,0,0,1-1.66,1.42c0-.09,0,.08,0,.1,1.16.37,2.35,1,3.5,1a4.76,4.76,0,0,0,3-1.48c1.48-1.61,3.48-1.7,5.29-2,2.24-.33,4.44-.49,6.3-2,.92.65.51,1.38.44,2.19-.2,2.16-.84,4.41.52,6.44a1.87,1.87,0,0,0,1,.65,1.92,1.92,0,0,1,1.62,1.9c.27,0,.55.13.74.05a3.55,3.55,0,0,1,3.46.55,1.68,1.68,0,0,0,2.47-.43l.84,1.83c2.16-.35,1.27,2.25,2.52,2.88,1.39-1.46,1.55-1.47,3.33-.54.33.17.89.33,1.11.17,1.46-1,2.81-.29,4.18.15,1,.34,2,1.1,3.22.35.22-.14.78.25,1.18.4a33.56,33.56,0,0,0,2.94-2.11c.24-.2.09-.88.09-1.33s-.16-.86,0-1.2c.38-.93.88-1.81,1.39-2.83h3.17a10.67,10.67,0,0,1,0,1.71,2.66,2.66,0,0,0,1.69,3,4.35,4.35,0,0,1,2.47,3.52,4,4,0,0,0,.94,1.78,14.37,14.37,0,0,0,2.56,2.55,2.72,2.72,0,0,0,3,.35c1.28-.65,2.09-.09,2.4,1.21.1.44.71.81,1.17,1.08a10.15,10.15,0,0,1,1.5.77Z"/><path class="cls-5" d="M346.3,89.08c-35.92-18.57-98.64,32.26-140.11,113.55s-46,162.23-10.05,180.81,98.64-32.27,140.11-113.55S382.21,107.65,346.3,89.08ZM321.13,268.91c-38.29,75-95.07,122.58-126.82,106.15s-26.47-90.58,11.81-165.63S301.19,86.85,333,103.28,359.41,193.86,321.13,268.91Z"/><path class="cls-6" d="M429,320.59c18.57-35.92-32.26-98.64-113.55-140.11s-162.23-46-180.8-10,32.26,98.64,113.54,140.11S410.42,356.5,429,320.59ZM249.16,295.42c-75-38.28-122.58-95.07-106.15-126.82s90.58-26.47,165.63,11.81,122.58,95.07,106.15,126.83S324.21,333.7,249.16,295.42Z"/><path class="cls-7" d="M417.38,186.91c-9.93-39.2-89.59-52.39-177.91-29.47S87.6,230.72,97.54,269.91s89.59,52.38,177.91,29.46S427.32,226.1,417.38,186.91ZM266.15,287.41C184.6,308.57,111.37,297.64,102.58,263s50.2-79.91,131.75-101.07,154.79-10.23,163.57,24.43S347.7,266.25,266.15,287.41Z"/><path class="cls-8" d="M263.63,436.45c-114.72,0-208-93.33-208-208s93.33-208,208.05-208,208,93.32,208,208S378.34,436.45,263.63,436.45Zm0-410c-111.36,0-201.95,90.59-201.95,202s90.59,201.94,202,201.94,201.94-90.59,201.94-201.94S375,26.46,263.63,26.46Z"/></svg>