<svg id="Layer_1" data-name="Layer 1" xmlns="http://www.w3.org/2000/svg" viewBox="0 0 230.7 206.4"><defs><style>.cls-1,.cls-4{fill:#fff;}.cls-1{stroke:#231f20;stroke-miterlimit:10;}.cls-2{fill:#231f20;}.cls-3{fill:#f7f3f4;}</style></defs><title>NRFA logo (Black and White)</title><path class="cls-1" d="M4.26,101.49h41.6a18.23,18.23,0,0,1-3-2.62c-1.9-2.55-1.11-5.46-.92-8.26a50.7,50.7,0,0,0,.57-5.44A85.54,85.54,0,0,1,44,68.2c.4-2.48.11-5.05.21-7.58,0-1.25.27-2.5.47-4.28a8.53,8.53,0,0,1,2.44-1.17c2.55-.48,4.65,1.84,4.31,4.6-.13,1.06-.33,2.12-.51,3.18-.33,2,1.08,3.11,3.1,2.5,4.06-1.23,8.1-2.49,12.6-3.88.64,1,1.86,2.35,2.27,3.84A6.88,6.88,0,0,0,73,70c2.6,1.17,4.65,3,6.92,4.52,2.06,1.4,4.93,1.79,7.45,2.59a14.05,14.05,0,0,0,10.2-.92c3.84-1.69,6.93-1.3,9.9,1.8,2,2.09,4.7,3.6,7.06,5.39,2.11,1.61,4.65,2,7.23,2.07,3.17.11,4.71,1.06,5.81,3.84.1.24.15.49.23.73,2.72,8.92,10.13,12.51,19,14.37A6.6,6.6,0,0,0,150,104c1.7-.55,2.83-.35,3.47,1.38s1.91,2.38,4,2v-3.57c0-5.25,0-10.5,0-15.75,0-3-1.77-3.88-4.65-2.74a10.71,10.71,0,0,1-3.81.5c-1,0-2-.39-3-.46a9.91,9.91,0,0,1-8.67-5.32,5.37,5.37,0,0,0-1.23-1.51c-3-2.53-3.1-5.58-2.52-9.1,1-6,3.34-11.46,5.79-16.91,2.24-5,2.08-10,1.6-15.08-.33-3.54-1.77-7-2.52-10.48a58.77,58.77,0,0,1-.71-6.05l5,.91c1.56-3.09,2.75-5.76,4.25-8.27a1.73,1.73,0,0,0-.1-2.35c-.73-.81-1.54-1.57-2.63-2.66,1.35-.79,2.46-1.83,3.77-2.16,7.45-1.87,14.94-3.56,22.43-5.32l2.87-.7c.15,2.22.43,4.24.39,6.27,0,1.3.66,2.17,1.75,2,2.5-.29,3.64,1.31,5.07,2.6.39.35.79.68,1.4,1.21l1.71-2.35c1.84-2.58,4.73-2.85,7.21-.62,2.15,1.94,4.22,3.94,6.36,5.89a5.5,5.5,0,0,0,1.62,1.07c4.89,2,9.79,4,14.72,5.89a13.35,13.35,0,0,0,3.87.81,4.58,4.58,0,0,1,4.36,3.2c.4,1.63.71,3.29,1.11,5.19a19.74,19.74,0,0,1,2,0c.43,0,1,.18,1.21.46,2.82,4.61,6.43,8.88,6.81,14.52a7.64,7.64,0,0,0,1.53,3.53c1.31,1.91,0,5.68-2.36,6.52-2.19.76-3.39,2.41-2.75,4.46a8.18,8.18,0,0,1-.56,6.4c-1.56,3.05-1.25,6.29-1.26,9.49,0,2.35.09,4.69,0,7a2.73,2.73,0,0,0,2.14,3c2,.47,2.12,1.6,2,3.08-.06.62,0,1.26,0,2.2a10.4,10.4,0,0,0-2.17,0c-1,.21-1.93.62-2.9.92s-1.86.55-3,.89c-.5,3.5-.93,7.26-1.62,11-.6,3.22-1.32,6.36-4.25,8.76-.89.73-.68,2.63-1,4.15,2.22.39,3.91.87,4.55,2.94.15.49,1.8.58,2.76.86.33.1.65.22,1.36.46-9.2,1.16-16.76,5.27-24.77,8.12-12.15,4.33-24.15,9-36.21,13.54l-1.71.7c1.33,3.85,2.61,7.56,4,11.72-3-.06-6.16-.46-9.24-.1A93.3,93.3,0,0,0,145,158.75c-1.08.27-1.87,1.59-2.77,2.45s-2,1.89-3.77,1.84a2.24,2.24,0,0,0-2.22,2.46c0,2,0,4.05,0,6.07a6.76,6.76,0,0,1-.32,1.83c-.58,1.88-1.6,2.76-4,2.22a23.78,23.78,0,0,0-5.79-.12,2,2,0,0,0-1.34.72c-1.36,1.81-2.64,3.67-4,5.64a11.42,11.42,0,0,0-1.87-.48c-1.47-.13-2.67.11-3.46,1.6-.58,1.11-1.79,1.92-2.58,3-1.94,2.51-3.85,5-5.67,7.64a24.89,24.89,0,0,0-1.1,2.52c-.58,1.06-1.29,2.06-1.93,3.09a26,26,0,0,0-1.34,2.27c-1.06,2.18-2.16,4.24-5.33,4.07-.52,0-1.09.45-1.6.74-1.53.88-2.61.68-3.09-.89-.4-1.28-1.12-1.52-2.35-1.43-2.63.18-5.3.13-7.9.51a6.55,6.55,0,0,1-4.8-.83,6.18,6.18,0,0,0-5.56-.57c-.82.26-1.74.28-2.57.54-1.27.4-2.13.24-2.82-1a2.24,2.24,0,0,0-1.75-.89c-1.77.2-2.66-.52-3-2-1.07-4.66-5.39-4.19-8.93-4.83a19.08,19.08,0,0,0-4.47,0c-1.79.09-3.45.12-3.59-2.31-4.77,1.41-9.34,2.72-13.88,4.12a7.29,7.29,0,0,1-6.39-.63c-.33-.21-.78-.36-1-.65-2-3.32-5.52-5.21-8.61-7.48-.52-.38-1.26-.74-1.44-1.26-.79-2.24-2.79-3.28-4.67-4.53-3-2-4.83-4.73-4.83-8.28q0-35,0-70Z"/><path class="cls-2" d="M0,101.11H41.6a18.65,18.65,0,0,1-3-2.62c-1.89-2.55-1.1-5.46-.91-8.26a53.36,53.36,0,0,0,.56-5.44,85.55,85.55,0,0,1,1.49-17c.4-2.48.1-5,.2-7.57.05-1.26.27-2.51.48-4.29a8.27,8.27,0,0,1,2.44-1.17c2.55-.48,4.65,1.84,4.31,4.6-.13,1.06-.34,2.12-.52,3.18-.32,2,1.08,3.11,3.11,2.5,4.05-1.23,8.1-2.49,12.6-3.88.64,1.05,1.86,2.35,2.27,3.85a6.89,6.89,0,0,0,4.13,4.6c2.61,1.17,4.65,3,6.93,4.52,2.06,1.4,4.92,1.79,7.44,2.59a14.13,14.13,0,0,0,10.21-.91c3.84-1.7,6.93-1.31,9.89,1.79,2,2.09,4.7,3.6,7.06,5.39,2.12,1.61,4.65,2,7.24,2.07,3.16.12,4.7,1.06,5.81,3.84.09.24.15.49.22.73,2.73,8.93,10.14,12.51,19,14.37a6.57,6.57,0,0,0,3.16-.43c1.71-.55,2.84-.35,3.48,1.38s1.91,2.38,4,2v-3.57c0-5.25,0-10.5,0-15.75,0-3-1.77-3.88-4.65-2.74a10.68,10.68,0,0,1-3.81.5c-1,0-2-.39-3-.46A9.93,9.93,0,0,1,133,79.68a5.34,5.34,0,0,0-1.22-1.51c-3-2.52-3.1-5.58-2.52-9.1,1-5.95,3.34-11.46,5.79-16.91,2.23-5,2.07-10,1.6-15.08-.34-3.54-1.77-7-2.52-10.48a58.77,58.77,0,0,1-.71-6.05l5,.91c1.56-3.09,2.75-5.76,4.25-8.27a1.7,1.7,0,0,0-.11-2.34c-.72-.82-1.53-1.57-2.62-2.67,1.34-.79,2.45-1.83,3.76-2.16,7.45-1.87,15-3.56,22.43-5.32L169,0c.15,2.22.42,4.25.38,6.27,0,1.3.66,2.17,1.76,2,2.5-.29,3.64,1.31,5.07,2.6.39.35.79.68,1.4,1.21l1.71-2.35c1.84-2.58,4.73-2.85,7.21-.62,2.14,1.94,4.22,3.94,6.35,5.89a5.55,5.55,0,0,0,1.63,1.07c4.89,2,9.78,4,14.72,5.89a13.35,13.35,0,0,0,3.87.81A4.59,4.59,0,0,1,217.5,26c.4,1.63.7,3.29,1.1,5.19a19.94,19.94,0,0,1,2,0c.42.05,1,.18,1.2.46,2.83,4.61,6.44,8.88,6.82,14.52a7.62,7.62,0,0,0,1.52,3.53c1.32,1.91.05,5.68-2.35,6.52-2.19.76-3.39,2.41-2.76,4.46a8.09,8.09,0,0,1-.56,6.4c-1.55,3-1.24,6.29-1.25,9.5,0,2.34.09,4.68,0,7a2.73,2.73,0,0,0,2.15,3c2,.47,2.11,1.6,2,3.08-.06.62,0,1.26,0,2.2a10.5,10.5,0,0,0-2.18,0c-1,.21-1.93.62-2.9.92s-1.85.55-3,.89c-.51,3.5-.94,7.26-1.63,11-.6,3.22-1.32,6.36-4.24,8.76-.89.73-.68,2.63-1,4.15,2.22.39,3.91.87,4.55,2.94.15.49,1.8.58,2.76.86.33.1.65.22,1.35.46-9.19,1.16-16.75,5.27-24.77,8.12-12.14,4.33-24.14,9-36.2,13.54-.62.24-1.22.5-1.71.7,1.32,3.85,2.6,7.56,4,11.72-3-.06-6.16-.46-9.23-.1a93.77,93.77,0,0,0-12.4,2.46c-1.08.27-1.87,1.59-2.76,2.45s-2,1.89-3.77,1.84a2.24,2.24,0,0,0-2.22,2.46c0,2,0,4,0,6.07a6.76,6.76,0,0,1-.32,1.83c-.58,1.88-1.61,2.76-4,2.22a23.76,23.76,0,0,0-5.79-.12,2,2,0,0,0-1.33.72c-1.37,1.81-2.65,3.67-4,5.64a10.92,10.92,0,0,0-1.87-.48c-1.46-.13-2.66.11-3.45,1.6-.59,1.11-1.79,1.92-2.59,3-1.93,2.51-3.84,5-5.66,7.64a22.88,22.88,0,0,0-1.11,2.52c-.57,1.06-1.28,2.06-1.92,3.09a26.08,26.08,0,0,0-1.35,2.27c-1.06,2.18-2.16,4.24-5.33,4.07-.51,0-1.08.45-1.59.74-1.54.88-2.62.68-3.1-.89-.39-1.28-1.11-1.52-2.34-1.43-2.64.18-5.3.13-7.9.51a6.58,6.58,0,0,1-4.81-.83,6.15,6.15,0,0,0-5.55-.57c-.83.26-1.74.28-2.57.54-1.27.4-2.13.24-2.82-1a2.24,2.24,0,0,0-1.75-.89c-1.78.2-2.67-.52-3-2-1.07-4.66-5.39-4.19-8.93-4.83a19.08,19.08,0,0,0-4.47,0c-1.8.09-3.46.12-3.59-2.31-4.77,1.41-9.34,2.72-13.88,4.12a7.29,7.29,0,0,1-6.39-.63c-.33-.21-.78-.36-1-.65C17.5,191.69,14,189.8,11,187.53c-.52-.38-1.27-.74-1.45-1.25C8.71,184,6.72,183,4.84,181.74c-3-2-4.83-4.73-4.83-8.28q0-35,0-70Z"/><path class="cls-2" d="M132.61,36h43.77s14-1,13.52,6.86,0,133.2,0,133.2H55.44L170.56,51l-14-.24H126.24L126.49,36Z"/><rect class="cls-3" x="130.77" y="41.17" width="4.04" height="2.2"/><path class="cls-3" d="M132,166.7l-2-.86,3.2-7.5,2,.87Zm6.39-15-2-.87,3.19-7.47,2,.87Zm6.38-14.94-2-.86,3.19-7.47,2,.86Zm6.36-14.94-2-.86,3.18-7.47,2,.87Zm6.36-14.93-2-.86,3.17-7.46,2,.86ZM163.78,92l-2-.86,3.17-7.48,2,.86Zm6.34-15-2-.86,3.15-7.48,2,.85Zm6.3-15-2-.85c1.23-2.95,2.29-5.48,3.12-7.49l2,.84C178.71,56.58,177.66,59.12,176.42,62.07Zm3.49-15.61c0-2.85-3-3.07-3.31-3.09h-1.32v-2.2h1.37c1.91.07,5.44,1.26,5.47,5.28Zm-12.72-3.09H159.1v-2.2h8.09Zm-16.19,0h-8.09v-2.2H151Z"/><rect class="cls-3" x="125.13" y="174.1" width="4.04" height="2.2" transform="translate(-83.76 223.94) rotate(-67.04)"/><polygon class="cls-3" points="129.24 49.25 127.97 49.25 126.5 49.25 126.48 50.72 157.57 50.72 169.89 50.93 54.75 176.08 56.75 176.08 58.1 174.61 58.09 174.61 60.09 172.44 60.09 172.44 173.19 49.52 157.58 49.25 129.24 49.25"/><path class="cls-3" d="M191.63,175.34c0-1.25-.5-125.43,0-133.15a5.65,5.65,0,0,0-1.68-4.54c-3.7-3.67-12.27-3.12-12.58-3.09H133.59l-6.85-.05,0,1.48h2.52l4.34,0h43.83c.08,0,8.27-.53,11.5,2.67a4.17,4.17,0,0,1,1.24,3.41c-.47,7.54,0,121.2,0,132.51h0v1.47h1.47Z"/><path class="cls-4" d="M33.36,106.94,54,138.13V106.65a7,7,0,0,1,1.31-4.6,4.44,4.44,0,0,1,3.56-1.54,4.57,4.57,0,0,1,3.65,1.54,6.84,6.84,0,0,1,1.33,4.6v41.63q0,7-5.77,7a7.55,7.55,0,0,1-2.6-.41,6.67,6.67,0,0,1-2.17-1.32,12.9,12.9,0,0,1-1.88-2.11c-.58-.81-1.15-1.63-1.73-2.47L29.57,118.1v31a6.59,6.59,0,0,1-1.41,4.58,4.63,4.63,0,0,1-3.61,1.55,4.58,4.58,0,0,1-3.64-1.57,6.68,6.68,0,0,1-1.38-4.56V108.28a11.62,11.62,0,0,1,.58-4.08,5.85,5.85,0,0,1,2.28-2.66,6.24,6.24,0,0,1,3.43-1,5.57,5.57,0,0,1,4.27,1.74,12.84,12.84,0,0,1,1.59,2Z"/><path class="cls-2" d="M58.06,156.35a8.79,8.79,0,0,1-3-.48,7.65,7.65,0,0,1-2.52-1.54,13.76,13.76,0,0,1-2-2.29c-.58-.81-1.17-1.64-1.75-2.49L30.67,121.8v27.31A7.7,7.7,0,0,1,29,154.43a5.74,5.74,0,0,1-4.43,1.92,5.68,5.68,0,0,1-4.47-1.95,7.83,7.83,0,0,1-1.65-5.29V108.28a12.42,12.42,0,0,1,.66-4.48,6.83,6.83,0,0,1,2.7-3.18,7.29,7.29,0,0,1,4-1.21,6.68,6.68,0,0,1,5.06,2.07,14.07,14.07,0,0,1,1.73,2.23l1.68,2.63,18.58,28.13V106.65a8,8,0,0,1,1.59-5.32,5.53,5.53,0,0,1,4.39-1.92,5.69,5.69,0,0,1,4.48,1.91,8,8,0,0,1,1.6,5.33v41.63C64.93,155,61.19,156.35,58.06,156.35Zm-29.59-42L50.6,148.33c.56.81,1.13,1.63,1.71,2.43A11.54,11.54,0,0,0,54,152.69a5.64,5.64,0,0,0,1.81,1.1,6.41,6.41,0,0,0,2.23.35c2.17,0,4.67-.66,4.67-5.86V106.65a5.9,5.9,0,0,0-1.06-3.88,3.5,3.5,0,0,0-2.82-1.15,3.34,3.34,0,0,0-2.72,1.15,5.9,5.9,0,0,0-1.05,3.88V141.8L32.43,107.53c-.58-.91-1.13-1.79-1.67-2.63A11.86,11.86,0,0,0,29.31,103a5.09,5.09,0,0,0-6.32-.55,4.69,4.69,0,0,0-1.86,2.15,10.48,10.48,0,0,0-.49,3.66v40.83a5.75,5.75,0,0,0,1.1,3.84,3.52,3.52,0,0,0,2.81,1.19,3.58,3.58,0,0,0,2.8-1.19,5.63,5.63,0,0,0,1.12-3.84Z"/><path class="cls-4" d="M90,131.71H86.22v17a7.06,7.06,0,0,1-1.49,4.95,5,5,0,0,1-3.86,1.58,4.91,4.91,0,0,1-4-1.66,7.33,7.33,0,0,1-1.41-4.87V108c0-2.31.52-4,1.56-5s2.7-1.55,5-1.55H99.5a54.08,54.08,0,0,1,6.17.3A15.67,15.67,0,0,1,110.3,103a13.45,13.45,0,0,1,4.4,3,13.1,13.1,0,0,1,2.91,4.53,15.12,15.12,0,0,1,1,5.47c0,3.94-1.11,7.1-3.34,9.45s-5.6,4-10.13,5a19.64,19.64,0,0,1,5.45,4.48,44.43,44.43,0,0,1,4.64,6.3,47.4,47.4,0,0,1,3.18,6,11.82,11.82,0,0,1,1.14,3.7,3.79,3.79,0,0,1-.67,2.07,4.71,4.71,0,0,1-1.82,1.63,5.71,5.71,0,0,1-2.67.59,5.26,5.26,0,0,1-3-.84,8.3,8.3,0,0,1-2.11-2.15c-.59-.87-1.39-2.14-2.4-3.83l-4.3-7.15a39,39,0,0,0-4.13-6,10.34,10.34,0,0,0-3.7-2.82A12.85,12.85,0,0,0,90,131.71Zm6.14-22.24H86.22V124h9.6a27.22,27.22,0,0,0,6.5-.67,7.58,7.58,0,0,0,4-2.28,6.51,6.51,0,0,0,1.39-4.42,6.69,6.69,0,0,0-4.22-6.39Q101.64,109.47,96.11,109.47Z"/><path class="cls-2" d="M114.38,156.35a6.32,6.32,0,0,1-3.66-1,9.25,9.25,0,0,1-2.4-2.43c-.6-.89-1.4-2.16-2.43-3.88l-4.3-7.15a37.62,37.62,0,0,0-4-5.83,9,9,0,0,0-3.28-2.52,11.75,11.75,0,0,0-4.32-.68H87.32v15.9a8.13,8.13,0,0,1-1.78,5.7,6.15,6.15,0,0,1-4.67,1.94,6,6,0,0,1-4.81-2,8.44,8.44,0,0,1-1.67-5.59V108c0-2.61.63-4.56,1.88-5.8s3.19-1.88,5.79-1.88H99.5a54,54,0,0,1,6.3.32,16.67,16.67,0,0,1,5,1.34,14.55,14.55,0,0,1,4.74,3.22,14.24,14.24,0,0,1,3.14,4.91A16.26,16.26,0,0,1,119.7,116a14.32,14.32,0,0,1-3.64,10.21,18.41,18.41,0,0,1-8.2,4.69,23.24,23.24,0,0,1,3.55,3.32,46.57,46.57,0,0,1,4.75,6.45,48.5,48.5,0,0,1,3.26,6.18c1.09,2.59,1.22,3.6,1.22,4.13a4.79,4.79,0,0,1-.85,2.67,5.81,5.81,0,0,1-2.24,2A6.92,6.92,0,0,1,114.38,156.35ZM85.11,130.6H90a14,14,0,0,1,5.14.84,11.22,11.22,0,0,1,4.11,3.11,40.16,40.16,0,0,1,4.26,6.17l4.29,7.13c1,1.67,1.8,2.94,2.37,3.78a7,7,0,0,0,1.83,1.86,4.1,4.1,0,0,0,2.41.65,4.74,4.74,0,0,0,2.16-.47,3.64,3.64,0,0,0,1.41-1.25,2.66,2.66,0,0,0,.49-1.47,10.78,10.78,0,0,0-1-3.27,45.88,45.88,0,0,0-3.11-5.89,44.31,44.31,0,0,0-4.52-6.14,18.54,18.54,0,0,0-5.14-4.23L102,130l2.94-.64c4.28-.94,7.5-2.52,9.56-4.7a12.21,12.21,0,0,0,3-8.7,14.13,14.13,0,0,0-.92-5.08,12,12,0,0,0-2.67-4.15,12.26,12.26,0,0,0-4-2.76,14.81,14.81,0,0,0-4.33-1.16,51.9,51.9,0,0,0-6-.3H82.06c-2,0-3.42.41-4.24,1.23S76.59,106,76.59,108v40.72a6.37,6.37,0,0,0,1.15,4.16,3.84,3.84,0,0,0,3.13,1.27,4,4,0,0,0,3.06-1.23,6.14,6.14,0,0,0,1.18-4.2Zm10.71-5.48H85.11V108.37h11c3.86,0,6.43.28,7.83.88a7.77,7.77,0,0,1,4.89,7.4,7.61,7.61,0,0,1-1.66,5.15,8.7,8.7,0,0,1-4.58,2.62A28.39,28.39,0,0,1,95.82,125.12Zm-8.5-2.21h8.5a26,26,0,0,0,6.23-.63,6.57,6.57,0,0,0,3.46-1.93,5.53,5.53,0,0,0,1.12-3.7,5.76,5.76,0,0,0-.93-3.27,5.66,5.66,0,0,0-2.62-2.1c-.76-.33-2.59-.71-7-.71H87.32Z"/><path class="cls-4" d="M160.37,109.68H139.25v13.54H156.9a5.33,5.33,0,0,1,3.67,1.1,3.83,3.83,0,0,1,1.21,3,3.7,3.7,0,0,1-1.23,2.92,5.38,5.38,0,0,1-3.65,1.08H139.25v17.44a7,7,0,0,1-1.5,4.93,5.43,5.43,0,0,1-7.72,0,7,7,0,0,1-1.5-4.91V108a9.1,9.1,0,0,1,.68-3.78,4.33,4.33,0,0,1,2.15-2.13,9.15,9.15,0,0,1,3.74-.66h25.27a5.54,5.54,0,0,1,3.81,1.13,3.84,3.84,0,0,1,1.24,3,3.9,3.9,0,0,1-1.24,3A5.54,5.54,0,0,1,160.37,109.68Z"/><path class="cls-2" d="M133.91,156.35a6.12,6.12,0,0,1-4.69-2,8.09,8.09,0,0,1-1.79-5.66V108a9.91,9.91,0,0,1,.79-4.24,5.32,5.32,0,0,1,2.68-2.67,10.17,10.17,0,0,1,4.2-.77h25.27a6.53,6.53,0,0,1,4.55,1.43,5.31,5.31,0,0,1,0,7.62,6.53,6.53,0,0,1-4.55,1.43h-20v11.33H156.9a6.37,6.37,0,0,1,4.41,1.39,4.87,4.87,0,0,1,1.57,3.76,4.79,4.79,0,0,1-1.6,3.75,6.45,6.45,0,0,1-4.38,1.35H140.35v16.34a8.1,8.1,0,0,1-1.79,5.68A6.12,6.12,0,0,1,133.91,156.35Zm1.19-53.83a8,8,0,0,0-3.28.57,3.16,3.16,0,0,0-1.61,1.59,8,8,0,0,0-.58,3.31v40.72a6,6,0,0,0,1.21,4.16,3.91,3.91,0,0,0,3.07,1.27,4,4,0,0,0,3-1.25,6.08,6.08,0,0,0,1.2-4.18V130.17H156.9a4.35,4.35,0,0,0,2.92-.81,2.6,2.6,0,0,0,.86-2.09,2.71,2.71,0,0,0-.85-2.13,4.33,4.33,0,0,0-2.93-.82H138.15V108.58h22.22a4.49,4.49,0,0,0,3.07-.85,2.81,2.81,0,0,0,.88-2.2,2.77,2.77,0,0,0-.88-2.16,4.49,4.49,0,0,0-3.07-.85Z"/><path class="cls-4" d="M201.71,148.35l-2.53-6.64H177.66l-2.52,6.78a23.93,23.93,0,0,1-2.53,5.37,4,4,0,0,1-3.43,1.38,5,5,0,0,1-3.58-1.48,4.52,4.52,0,0,1-1.55-3.35,7.53,7.53,0,0,1,.36-2.24c.24-.77.64-1.84,1.19-3.21l13.54-34.37,1.39-3.56a17.82,17.82,0,0,1,1.74-3.45,7.15,7.15,0,0,1,2.41-2.22,8.57,8.57,0,0,1,7.44,0,7.21,7.21,0,0,1,2.42,2.19,15.22,15.22,0,0,1,1.55,2.87c.42,1,1,2.39,1.61,4.09l13.83,34.16a17.24,17.24,0,0,1,1.62,5.66,4.7,4.7,0,0,1-1.53,3.38,5.07,5.07,0,0,1-3.7,1.53,4.8,4.8,0,0,1-2.17-.45,4.53,4.53,0,0,1-1.52-1.22,11.5,11.5,0,0,1-1.31-2.39C202.45,150.11,202,149.17,201.71,148.35Zm-21.23-14.69h15.81l-8-21.85Z"/><path class="cls-2" d="M207.92,156.35a5.86,5.86,0,0,1-2.66-.57,5.53,5.53,0,0,1-1.89-1.53,12.46,12.46,0,0,1-1.46-2.62c-.48-1.08-.88-2-1.22-2.86v0l-2.26-5.93h-20l-2.26,6.07a24.66,24.66,0,0,1-2.68,5.64,5.09,5.09,0,0,1-4.31,1.83,6.12,6.12,0,0,1-4.34-1.79,5.62,5.62,0,0,1-1.89-4.15,8.72,8.72,0,0,1,.41-2.57c.25-.8.65-1.88,1.22-3.3l14.93-37.91a18.59,18.59,0,0,1,1.84-3.66,8.3,8.3,0,0,1,2.79-2.57,9.66,9.66,0,0,1,8.52,0,8.48,8.48,0,0,1,2.79,2.52,16.87,16.87,0,0,1,1.66,3.08c.43,1,1,2.43,1.62,4.12l13.82,34.13a18,18,0,0,1,1.7,6.08,5.77,5.77,0,0,1-1.85,4.16A6.16,6.16,0,0,1,207.92,156.35Zm-5.19-8.41c.33.81.73,1.75,1.2,2.8a10.28,10.28,0,0,0,1.17,2.14,3.34,3.34,0,0,0,1.14.93,3.81,3.81,0,0,0,1.68.33,3.93,3.93,0,0,0,2.92-1.21,3.61,3.61,0,0,0,1.21-2.6c0-.7-.27-2.19-1.54-5.24l-13.83-34.16c-.65-1.7-1.18-3.07-1.61-4.09a14,14,0,0,0-1.44-2.67,6,6,0,0,0-2-1.85,6.44,6.44,0,0,0-3.19-.7,6.35,6.35,0,0,0-3.16.7,5.9,5.9,0,0,0-2,1.88,16.69,16.69,0,0,0-1.62,3.23L180.17,111l-13.54,34.37c-.54,1.35-.94,2.4-1.17,3.14a6.62,6.62,0,0,0-.31,1.91,3.48,3.48,0,0,0,1.21,2.56,4,4,0,0,0,2.82,1.17,3,3,0,0,0,2.55-.95,21.66,21.66,0,0,0,2.37-5.08l2.8-7.51h23Zm-4.86-13.18h-19l9.39-26.18ZM182,132.55h12.68l-6.4-17.5Z"/><polygon class="cls-4" points="56.42 187.79 30.39 187.79 42.63 174 56.42 174 56.42 187.79"/><path class="cls-2" d="M57.52,188.89H27.93l14.2-16H57.52Zm-24.68-2.2H55.32V175.1H43.12Z"/><polygon class="cls-4" points="188.56 187.79 214.59 187.79 202.35 174 188.56 174 188.56 187.79"/><path class="cls-2" d="M217,188.89H187.45v-16h15.39Zm-27.38-2.2h22.48L201.85,175.1H189.66Z"/><rect class="cls-4" x="44.71" y="177.06" width="154.01" height="14.2"/><path class="cls-2" d="M199.82,192.36H43.61V176H199.82Zm-154-2.2H197.62v-12H45.81Z"/><path class="cls-2" d="M53.7,187.68v-6.2h2.75a3.74,3.74,0,0,1,1.26.16,1.36,1.36,0,0,1,.69.59,1.82,1.82,0,0,1,.26.94,1.53,1.53,0,0,1-.43,1.11,2.14,2.14,0,0,1-1.32.58,2.17,2.17,0,0,1,.5.31,4.42,4.42,0,0,1,.68.82l1.08,1.69h-1l-.83-1.29a9.48,9.48,0,0,0-.59-.85,1.65,1.65,0,0,0-.42-.42,1.1,1.1,0,0,0-.37-.16,2.46,2.46,0,0,0-.46,0h-.95v2.75Zm.82-3.47h1.77a2.66,2.66,0,0,0,.88-.11,1,1,0,0,0,.48-.37,1,1,0,0,0,.16-.56.89.89,0,0,0-.32-.72,1.49,1.49,0,0,0-1-.29h-2Z"/><path class="cls-2" d="M59.7,184.66a3.34,3.34,0,0,1,.83-2.42,2.81,2.81,0,0,1,2.14-.87,2.92,2.92,0,0,1,1.55.41,2.63,2.63,0,0,1,1,1.14,3.76,3.76,0,0,1,.36,1.67,3.72,3.72,0,0,1-.38,1.69,2.54,2.54,0,0,1-1.08,1.12,3,3,0,0,1-1.51.39,2.86,2.86,0,0,1-1.56-.43,2.72,2.72,0,0,1-1.05-1.15A3.62,3.62,0,0,1,59.7,184.66Zm.84,0a2.46,2.46,0,0,0,.61,1.77,2.11,2.11,0,0,0,3,0,2.62,2.62,0,0,0,.6-1.85,3.2,3.2,0,0,0-.26-1.32,2,2,0,0,0-.75-.88,2.16,2.16,0,0,0-2.61.29A2.68,2.68,0,0,0,60.54,184.67Z"/><path class="cls-2" d="M66,187.68l2.38-6.2h.89l2.54,6.2h-.94l-.72-1.88h-2.6l-.68,1.88Zm1.79-2.55h2.1l-.64-1.72c-.2-.52-.35-.95-.44-1.28a8.33,8.33,0,0,1-.34,1.18Z"/><path class="cls-2" d="M72.47,187.68v-6.2h2.14a6,6,0,0,1,1.1.08,2.11,2.11,0,0,1,.91.45,2.51,2.51,0,0,1,.74,1.06,4.2,4.2,0,0,1,.24,1.47,4.38,4.38,0,0,1-.16,1.26,2.9,2.9,0,0,1-.43.9,2.12,2.12,0,0,1-.56.56,2.27,2.27,0,0,1-.74.32,4.28,4.28,0,0,1-1,.1Zm.82-.73h1.33a3,3,0,0,0,1-.12,1.33,1.33,0,0,0,.56-.32,2,2,0,0,0,.45-.78,3.81,3.81,0,0,0,.17-1.2,2.87,2.87,0,0,0-.32-1.49,1.61,1.61,0,0,0-.78-.7,3,3,0,0,0-1.06-.13H73.29Z"/><path class="cls-2" d="M81.12,187.68v-6.2h1.23l1.47,4.39c.14.41.24.72.3.92.07-.23.18-.56.33-1l1.48-4.31H87v6.2h-.79v-5.19l-1.81,5.19H83.7l-1.79-5.28v5.28Z"/><path class="cls-2" d="M87.68,187.68l2.38-6.2H91l2.54,6.2h-.94l-.72-1.88H89.24l-.69,1.88Zm1.79-2.55h2.11l-.65-1.72c-.2-.52-.35-.95-.44-1.28a7.19,7.19,0,0,1-.34,1.18Z"/><path class="cls-2" d="M94.14,187.68v-6.2H95l3.26,4.87v-4.87H99v6.2h-.85l-3.26-4.87v4.87Z"/><path class="cls-2" d="M99.72,187.68l2.39-6.2H103l2.54,6.2h-.93l-.73-1.88h-2.59l-.68,1.88Zm1.8-2.55h2.1l-.65-1.72c-.2-.52-.34-.95-.44-1.28a8.29,8.29,0,0,1-.33,1.18Z"/><path class="cls-2" d="M109.09,185.25v-.73h2.63v2.3a4.54,4.54,0,0,1-1.25.72,3.68,3.68,0,0,1-3-.14,2.65,2.65,0,0,1-1.13-1.14,3.58,3.58,0,0,1-.38-1.65,3.84,3.84,0,0,1,.38-1.69,2.53,2.53,0,0,1,1.09-1.17,3.45,3.45,0,0,1,1.64-.38,3.11,3.11,0,0,1,1.21.22,2,2,0,0,1,.86.61,2.79,2.79,0,0,1,.47,1l-.74.2a2.43,2.43,0,0,0-.35-.74,1.39,1.39,0,0,0-.59-.43,2.16,2.16,0,0,0-.86-.17,2.59,2.59,0,0,0-1,.17,1.73,1.73,0,0,0-.66.46,2.22,2.22,0,0,0-.4.61,3.39,3.39,0,0,0-.23,1.25,3.08,3.08,0,0,0,.28,1.39,1.85,1.85,0,0,0,.83.83,2.63,2.63,0,0,0,1.16.27,2.73,2.73,0,0,0,1.05-.21,2.84,2.84,0,0,0,.77-.44v-1.15Z"/><path class="cls-2" d="M113,187.68v-6.2h4.49v.73h-3.67v1.9h3.43v.73h-3.43V187h3.81v.73Z"/><path class="cls-2" d="M118.69,187.68v-6.2h1.23l1.47,4.39c.14.41.24.72.3.92.07-.23.18-.56.33-1l1.49-4.31h1.1v6.2h-.79v-5.19l-1.8,5.19h-.75l-1.79-5.28v5.28Z"/><path class="cls-2" d="M126,187.68v-6.2h4.49v.73h-3.67v1.9h3.44v.73h-3.44V187h3.81v.73Z"/><path class="cls-2" d="M131.71,187.68v-6.2h.84l3.26,4.87v-4.87h.79v6.2h-.84l-3.26-4.87v4.87Z"/><path class="cls-2" d="M139.56,187.68v-5.47h-2.05v-.73h4.92v.73h-2.05v5.47Z"/><path class="cls-2" d="M145.67,187.68v-6.2h.82v6.2Z"/><path class="cls-2" d="M147.93,187.68v-6.2h.84l3.26,4.87v-4.87h.78v6.2H152l-3.26-4.87v4.87Z"/><path class="cls-2" d="M154.33,187.68v-6.2h.83v6.2Z"/><path class="cls-2" d="M158.18,187.68v-5.47h-2v-.73h4.92v.73H159v5.47Z"/><path class="cls-2" d="M162,187.68v-6.2h.82v6.2Z"/><path class="cls-2" d="M163.63,187.68l2.38-6.2h.88l2.54,6.2h-.93l-.73-1.88h-2.59l-.68,1.88Zm1.79-2.55h2.1l-.65-1.72c-.19-.52-.34-.95-.44-1.28a8.29,8.29,0,0,1-.33,1.18Z"/><path class="cls-2" d="M171,187.68v-5.47H169v-.73h4.92v.73h-2.05v5.47Z"/><path class="cls-2" d="M174.88,187.68v-6.2h.82v6.2Z"/><path class="cls-2" d="M178.92,187.68l-2.4-6.2h.89L179,186c.13.37.24.7.33,1a10.07,10.07,0,0,1,.33-1l1.68-4.5h.84l-2.43,6.2Z"/><path class="cls-2" d="M183,187.68v-6.2h4.49v.73h-3.67v1.9h3.43v.73h-3.43V187h3.81v.73Z"/></svg>