<svg id="Layer_1" data-name="Layer 1" xmlns="http://www.w3.org/2000/svg" xmlns:xlink="http://www.w3.org/1999/xlink" viewBox="0 0 596.7 526.62"><defs><style>.cls-1{opacity:0.41;}.cls-2{fill:#fcdc11;}.cls-3{fill:#1e6e3e;}.cls-4{fill:#231f20;}.cls-5{fill:#f8f4f5;}.cls-6{fill:#fff;}</style></defs><title>NRFA Logo</title><path class="cls-2" d="M16.38,256.79H119.44c-2.67-2.28-5.6-4-7.43-6.49-4.69-6.31-2.74-13.54-2.26-20.48.31-4.5,1.57-9,1.39-13.47-.57-14.18,1.44-28.08,3.68-42,1-6.14.26-12.51.51-18.77.12-3.11.67-6.2,1.18-10.63,1.15-.57,3.45-2.39,6-2.88,6.31-1.19,11.52,4.56,10.68,11.39-.33,2.64-.83,5.26-1.27,7.89-.82,4.83,2.67,7.69,7.69,6.17,10-3,20.06-6.16,31.21-9.59,1.59,2.58,4.6,5.81,5.61,9.52,1.54,5.6,5.19,9.12,10.26,11.41,6.45,2.9,11.51,7.37,17.16,11.2,5.1,3.47,12.19,4.42,18.43,6.41,8.78,2.8,17.25,1.27,25.29-2.27,9.51-4.19,17.17-3.23,24.51,4.45,5,5.18,11.64,8.91,17.49,13.36,5.24,4,11.51,4.9,17.92,5.13,7.84.27,11.66,2.62,14.4,9.51.23.59.37,1.21.55,1.81,6.76,22.1,25.12,31,47,35.58,2.42.51,5.36-.25,7.83-1.05,4.21-1.38,7-.87,8.61,3.42,1.51,4.06,4.73,5.88,9.87,5.06v-8.85c0-13,.08-26,0-39-.06-7.36-4.39-9.61-11.53-6.77-2.83,1.12-6.27,1.2-9.44,1.24-2.47,0-4.93-1-7.42-1.16-9.84-.66-17-4.92-21.49-13.17a13,13,0,0,0-3-3.74c-7.49-6.26-7.69-13.84-6.24-22.55,2.45-14.73,8.27-28.4,14.34-41.89,5.54-12.32,5.14-24.85,4-37.37-.83-8.75-4.38-17.25-6.23-25.94-1.1-5.15-1.27-10.47-1.78-15l12.39,2.24c3.87-7.64,6.82-14.26,10.54-20.48,1.46-2.43,1.31-4-.27-5.8-1.79-2-3.8-3.89-6.49-6.6,3.33-2,6.07-4.54,9.32-5.35,18.46-4.63,37-8.83,55.56-13.19,1.92-.45,3.83-.92,7.13-1.73.38,5.5,1.05,10.52,1,15.53-.06,3.24,1.62,5.38,4.35,5.07,6.19-.73,9,3.24,12.55,6.43,1,.86,1.95,1.69,3.47,3,1.5-2.06,2.88-3.94,4.23-5.83,4.57-6.38,11.72-7.06,17.86-1.53,5.32,4.8,10.45,9.77,15.75,14.59a13.9,13.9,0,0,0,4,2.65c12.12,4.95,24.24,9.89,36.47,14.59a33.14,33.14,0,0,0,9.59,2c5.13.33,9.65,3.26,10.79,7.92,1,4.05,1.75,8.14,2.75,12.86a44.69,44.69,0,0,1,5,.05c1.06.11,2.56.44,3,1.14,7,11.41,15.94,22,16.88,36,.21,3,2,6.12,3.78,8.74,3.26,4.74.11,14.08-5.83,16.16-5.43,1.89-8.41,6-6.83,11a20.18,20.18,0,0,1-1.39,15.86c-3.85,7.55-3.08,15.57-3.11,23.52,0,5.8.23,11.61-.08,17.39-.22,4,1.83,6.73,5.31,7.55,4.92,1.16,5.24,3.95,4.89,7.62-.15,1.55,0,3.12,0,5.45a26.72,26.72,0,0,0-5.39.07c-2.45.52-4.78,1.54-7.18,2.29s-4.6,1.37-7.44,2.2c-1.26,8.68-2.33,18-4,27.18-1.48,8-3.27,15.76-10.51,21.7-2.21,1.81-1.69,6.52-2.5,10.28,5.49,1,9.68,2.15,11.27,7.28.37,1.23,4.46,1.44,6.84,2.14.81.24,1.6.54,3.36,1.13-22.79,2.88-41.52,13.06-61.37,20.13-30.09,10.7-59.82,22.31-89.69,33.54-1.53.57-3,1.23-4.23,1.73,3.28,9.53,6.44,18.73,10,29-7.38-.15-15.26-1.13-22.89-.24a235.61,235.61,0,0,0-30.69,6.09c-2.69.68-4.64,3.94-6.86,6.08-2.58,2.48-4.9,4.67-9.33,4.56-3.21-.09-5.53,2.53-5.5,6.08,0,5,.07,10,0,15a16.47,16.47,0,0,1-.8,4.54c-1.43,4.64-4,6.83-9.86,5.5-4.55-1-9.56-.45-14.35-.31a5,5,0,0,0-3.3,1.78c-3.39,4.48-6.56,9.1-10,14a27.89,27.89,0,0,0-4.63-1.2c-3.64-.31-6.61.28-8.56,4-1.45,2.75-4.43,4.77-6.4,7.33-4.8,6.22-9.52,12.5-14,18.91-1.3,1.84-1.64,4.24-2.73,6.24-1.43,2.63-3.18,5.1-4.77,7.66a63.92,63.92,0,0,0-3.34,5.62c-2.62,5.41-5.35,10.5-13.2,10.09-1.28-.06-2.69,1.1-4,1.83-3.79,2.18-6.47,1.69-7.66-2.19-1-3.18-2.76-3.77-5.81-3.56-6.52.46-13.13.32-19.56,1.26-4.47.65-8.3.29-11.91-2-4.35-2.81-8.88-3-13.76-1.43-2,.66-4.32.71-6.37,1.36-3.14,1-5.28.59-7-2.4a5.5,5.5,0,0,0-4.32-2.22c-4.41.49-6.61-1.3-7.47-5-2.65-11.54-13.35-10.38-22.12-12-3.57-.65-7.39-.27-11.07-.07-4.45.24-8.57.31-8.9-5.71-11.81,3.5-23.14,6.74-34.38,10.22-5.63,1.74-10.85,1.55-15.83-1.58-.82-.52-1.94-.89-2.39-1.62-5.08-8.21-13.66-12.89-21.32-18.51-1.3-.95-3.14-1.85-3.58-3.11-2-5.57-6.9-8.15-11.56-11.25-7.48-5-12-11.7-12-20.49q0-86.76,0-173.52Z"/><path class="cls-3" d="M5.84,255.85H108.9c-2.67-2.28-5.6-4-7.43-6.49-4.69-6.31-2.74-13.54-2.26-20.48.31-4.5,1.57-9,1.39-13.47-.57-14.18,1.45-28.08,3.68-42,1-6.14.26-12.51.51-18.77.12-3.11.67-6.2,1.18-10.63,1.15-.57,3.45-2.39,6-2.88,6.31-1.19,11.52,4.56,10.68,11.39-.33,2.64-.83,5.26-1.27,7.89-.82,4.83,2.67,7.69,7.69,6.17,10-3,20.06-6.16,31.21-9.59,1.59,2.58,4.6,5.81,5.62,9.51,1.54,5.61,5.19,9.13,10.25,11.42,6.45,2.9,11.52,7.37,17.16,11.2,5.1,3.47,12.2,4.42,18.44,6.41,8.77,2.8,17.24,1.27,25.28-2.27,9.51-4.19,17.17-3.23,24.51,4.45,5,5.18,11.64,8.91,17.49,13.36,5.24,4,11.52,4.9,17.92,5.13,7.84.27,11.66,2.62,14.4,9.51.23.59.37,1.2.55,1.81,6.76,22.1,25.12,31,47.05,35.58,2.42.51,5.36-.25,7.83-1.05,4.22-1.38,7-.87,8.61,3.42,1.51,4.06,4.73,5.88,9.88,5.06v-8.85c0-13,.07-26,0-39-.06-7.36-4.39-9.62-11.52-6.77-2.84,1.12-6.28,1.2-9.45,1.24-2.47,0-4.93-1-7.42-1.16-9.84-.66-17-4.92-21.49-13.17a13,13,0,0,0-3-3.74c-7.49-6.26-7.69-13.84-6.24-22.55,2.45-14.73,8.27-28.4,14.34-41.89,5.54-12.32,5.14-24.85,4-37.37-.83-8.75-4.38-17.25-6.23-25.94-1.1-5.15-1.27-10.47-1.77-15l12.38,2.24c3.87-7.64,6.82-14.26,10.54-20.48,1.46-2.43,1.31-4-.26-5.8-1.8-2-3.81-3.89-6.5-6.6,3.33-2,6.07-4.54,9.32-5.35,18.46-4.63,37-8.84,55.56-13.19,1.92-.45,3.83-.93,7.13-1.73.38,5.5,1,10.52,1,15.53-.06,3.24,1.63,5.38,4.35,5.06,6.19-.72,9,3.25,12.55,6.44,1,.86,2,1.69,3.47,3,1.5-2.07,2.88-3.94,4.23-5.83C454.73,23.18,461.89,22.5,468,28c5.33,4.79,10.45,9.77,15.75,14.59a13.9,13.9,0,0,0,4,2.65c12.12,4.94,24.25,9.89,36.47,14.59a33.21,33.21,0,0,0,9.59,2c5.13.33,9.65,3.26,10.79,7.92,1,4,1.76,8.14,2.75,12.86a44.87,44.87,0,0,1,5,0c1.05.11,2.56.44,3,1.14,7,11.41,15.94,22,16.89,36,.2,3,2,6.12,3.77,8.74,3.26,4.74.11,14.08-5.83,16.16-5.43,1.89-8.41,6-6.83,11A20.18,20.18,0,0,1,562,171.62c-3.85,7.55-3.08,15.57-3.11,23.52,0,5.8.24,11.61-.08,17.39-.22,4,1.83,6.73,5.31,7.55,4.92,1.16,5.24,3.94,4.89,7.62-.15,1.55,0,3.12,0,5.45a27.51,27.51,0,0,0-5.39.06c-2.45.53-4.78,1.55-7.18,2.3s-4.6,1.36-7.44,2.2c-1.26,8.68-2.32,18-4,27.18-1.48,8-3.26,15.76-10.51,21.7-2.21,1.81-1.69,6.52-2.5,10.28,5.5,1,9.68,2.15,11.27,7.28.38,1.22,4.47,1.44,6.84,2.14.81.24,1.6.54,3.36,1.13-22.79,2.88-41.52,13.06-61.37,20.13-30.09,10.7-59.81,22.31-89.69,33.54-1.53.57-3,1.23-4.23,1.72,3.28,9.54,6.44,18.73,10,29-7.38-.15-15.26-1.13-22.89-.25a237.65,237.65,0,0,0-30.69,6.1c-2.68.68-4.64,3.94-6.86,6.08-2.58,2.48-4.89,4.67-9.33,4.56-3.2-.09-5.53,2.53-5.5,6.08,0,5,.07,10,0,15A16.48,16.48,0,0,1,332,434c-1.43,4.64-4,6.83-9.86,5.49-4.55-1-9.56-.44-14.35-.3a5,5,0,0,0-3.3,1.78c-3.39,4.48-6.56,9.1-10,14a28.15,28.15,0,0,0-4.63-1.2c-3.64-.31-6.62.28-8.56,4-1.46,2.75-4.43,4.77-6.41,7.33-4.8,6.22-9.52,12.5-14,18.9-1.3,1.85-1.64,4.25-2.73,6.25-1.43,2.63-3.18,5.1-4.77,7.66a61.45,61.45,0,0,0-3.33,5.62c-2.63,5.41-5.36,10.5-13.21,10.09-1.28-.06-2.69,1.1-3.95,1.83-3.8,2.18-6.48,1.69-7.67-2.2-1-3.17-2.76-3.76-5.81-3.55-6.52.46-13.13.32-19.56,1.26-4.47.65-8.3.29-11.91-2-4.35-2.81-8.88-3-13.76-1.43-2,.66-4.32.71-6.37,1.36-3.14,1-5.28.59-7-2.4a5.52,5.52,0,0,0-4.33-2.22c-4.41.48-6.61-1.3-7.46-5-2.66-11.54-13.36-10.38-22.13-12-3.56-.64-7.39-.26-11.07-.06-4.44.24-8.56.31-8.9-5.71-11.81,3.49-23.13,6.74-34.38,10.22-5.63,1.74-10.85,1.54-15.83-1.58-.82-.52-1.93-.89-2.38-1.62C49.2,480.24,40.62,475.56,33,469.94c-1.29-.95-3.14-1.85-3.58-3.12-2-5.56-6.9-8.14-11.56-11.24-7.47-5-12-11.7-12-20.49q0-86.76,0-173.52Z"/><path class="cls-4" d="M334.35,94.61H442.79s34.71-2.43,33.5,17,0,330,0,330H143.18L428.37,131.61,393.8,131H318.58l.61-36.49Z"/><rect class="cls-5" x="329.8" y="107.34" width="10.01" height="5.46"/><path class="cls-5" d="M332.73,418.34l-5-2.14,7.93-18.57,5,2.14Zm15.83-37.07-5-2.15,7.9-18.5,5,2.14Zm15.79-37-5-2.14,7.89-18.5,5,2.14Zm15.77-37-5-2.14,7.88-18.5,5,2.14Zm15.75-37-5-2.14,7.85-18.47,5,2.13Zm15.71-37-5-2.13,7.84-18.51,5,2.13Zm15.69-37-5-2.12,7.82-18.54,5,2.12Zm15.62-37.09-5-2.11c3.06-7.3,5.68-13.59,7.73-18.57l5.05,2.08C448.57,145.53,446,151.82,442.89,159.14Zm8.65-38.67c-.05-7.07-7.36-7.63-8.19-7.67h-3.28v-5.46h3.39c4.72.18,13.47,3.15,13.54,13.09ZM420,112.8H400v-5.46h20Zm-40.1,0H359.87v-5.46h20.05Z"/><rect class="cls-5" x="315.84" y="436.65" width="10.01" height="5.46" transform="translate(-208.88 563.42) rotate(-67.04)"/><polygon class="cls-5" points="326.01 127.36 322.86 127.36 319.22 127.36 319.16 131 396.19 131 426.72 131.54 141.46 441.56 146.42 441.56 149.76 437.92 149.76 437.92 154.69 432.56 154.71 432.54 434.88 128.04 396.22 127.36 326.01 127.36"/><path class="cls-5" d="M480.57,439.73c0-3.1-1.23-310.72,0-329.85a14,14,0,0,0-4.14-11.25c-9.17-9.09-30.4-7.72-31.17-7.66H336.78l-16.95-.11-.06,3.65H326v0l10.76.07H445.34c.21,0,20.49-1.32,28.49,6.62a10.36,10.36,0,0,1,3.07,8.44c-1.17,18.68-.09,300.24,0,328.26h0v3.64h3.65Z"/><path class="cls-6" d="M88.49,270.29l51.07,77.27v-78q0-7.6,3.26-11.4a11,11,0,0,1,8.81-3.8,11.33,11.33,0,0,1,9,3.8Q164,262,164,269.57V372.69Q164,390,149.66,390a18.88,18.88,0,0,1-6.44-1,16.2,16.2,0,0,1-5.36-3.26,31.58,31.58,0,0,1-4.65-5.23q-2.16-3-4.3-6.13L79.1,297.92v76.83q0,7.51-3.49,11.36a11.56,11.56,0,0,1-9,3.84,11.39,11.39,0,0,1-9-3.89q-3.41-3.88-3.4-11.31V273.6a28.71,28.71,0,0,1,1.43-10.11,14.4,14.4,0,0,1,5.64-6.57,15.3,15.3,0,0,1,8.49-2.55,13.9,13.9,0,0,1,10.6,4.29,32.14,32.14,0,0,1,3.94,5.1C85.67,265.85,87.06,268,88.49,270.29Z"/><path class="cls-4" d="M149.66,392.68a21.69,21.69,0,0,1-7.36-1.19,19,19,0,0,1-6.26-3.8,34.36,34.36,0,0,1-5-5.67c-1.44-2-2.89-4.07-4.33-6.17L81.82,307.1v67.65c0,5.68-1.41,10.12-4.19,13.19a14.22,14.22,0,0,1-11,4.74,14.08,14.08,0,0,1-11.09-4.82c-2.7-3.09-4.07-7.51-4.07-13.11V273.6a30.89,30.89,0,0,1,1.62-11.1,17.13,17.13,0,0,1,6.69-7.87,18,18,0,0,1,10-3,16.57,16.57,0,0,1,12.55,5.11,34.78,34.78,0,0,1,4.28,5.53c1.35,2.09,2.73,4.26,4.16,6.53l46.05,69.67V269.57c0-5.71,1.32-10.15,3.92-13.18a13.69,13.69,0,0,1,10.88-4.75,14,14,0,0,1,11.09,4.73c2.64,3,4,7.48,4,13.2V372.69C166.7,389.21,157.43,392.68,149.66,392.68ZM76.37,288.74l54.83,84.07c1.38,2,2.8,4.05,4.22,6a29.18,29.18,0,0,0,4.25,4.78,13.55,13.55,0,0,0,4.48,2.73,16.17,16.17,0,0,0,5.51.87c5.39,0,11.58-1.65,11.58-14.53V269.57c0-4.36-.89-7.6-2.64-9.61a8.66,8.66,0,0,0-7-2.86,8.36,8.36,0,0,0-6.74,2.84c-1.73,2-2.61,5.26-2.61,9.63v87.07l-56.1-84.9Q84,268.37,82,265.23a29.13,29.13,0,0,0-3.59-4.66,11.14,11.14,0,0,0-8.65-3.47,12.55,12.55,0,0,0-7,2.11,11.64,11.64,0,0,0-4.6,5.34A26.24,26.24,0,0,0,57,273.6V374.75c0,4.25.92,7.45,2.73,9.52a8.7,8.7,0,0,0,7,3,8.85,8.85,0,0,0,6.93-3c1.84-2,2.78-5.23,2.78-9.52Z"/><path class="cls-6" d="M228.72,331.64h-9.3v42.13q0,8.31-3.67,12.25a12.46,12.46,0,0,1-9.56,3.93q-6.36,0-9.84-4.11t-3.49-12.07V272.88q0-8.58,3.84-12.43t12.44-3.85h43.19a132.85,132.85,0,0,1,15.3.76,38.6,38.6,0,0,1,11.45,3.09A33.18,33.18,0,0,1,290,267.87a32.47,32.47,0,0,1,7.2,11.23,37.4,37.4,0,0,1,2.46,13.55q0,14.66-8.28,23.43t-25.08,12.43a48.42,48.42,0,0,1,13.5,11.09,111.78,111.78,0,0,1,11.49,15.61,114.22,114.22,0,0,1,7.87,14.93q2.82,6.66,2.82,9.17a9.38,9.38,0,0,1-1.65,5.14,11.7,11.7,0,0,1-4.52,4,14.29,14.29,0,0,1-6.62,1.47,12.9,12.9,0,0,1-7.51-2.1,20.07,20.07,0,0,1-5.23-5.32q-2.19-3.22-5.95-9.48l-10.64-17.71a97.89,97.89,0,0,0-10.24-14.85,25.33,25.33,0,0,0-9.17-7A31.58,31.58,0,0,0,228.72,331.64Zm15.21-55.09H219.42v36h23.79a66.27,66.27,0,0,0,16.1-1.66q6.53-1.65,10-5.63t3.45-11a16.59,16.59,0,0,0-10.47-15.83Q257.61,276.54,243.93,276.55Z"/><path class="cls-4" d="M289.18,392.68a15.64,15.64,0,0,1-9.06-2.58,23.08,23.08,0,0,1-5.94-6c-1.5-2.19-3.47-5.34-6-9.61l-10.64-17.7a95.33,95.33,0,0,0-9.95-14.45,22.76,22.76,0,0,0-8.14-6.25,29.13,29.13,0,0,0-10.7-1.68h-6.57v39.4c0,6.23-1.48,11-4.4,14.11a15.14,15.14,0,0,1-11.56,4.8c-5.06,0-9.07-1.71-11.93-5.08s-4.13-7.89-4.13-13.83V272.88c0-6.45,1.56-11.28,4.64-14.36s7.92-4.65,14.37-4.65h43.19a136.58,136.58,0,0,1,15.62.78A41.3,41.3,0,0,1,280.21,258a35.63,35.63,0,0,1,11.72,8,35.23,35.23,0,0,1,7.8,12.15,40.28,40.28,0,0,1,2.65,14.54c0,10.45-3,19-9,25.3-4.79,5.08-11.61,9-20.32,11.63a56.82,56.82,0,0,1,8.8,8.22,116,116,0,0,1,11.77,16,118.61,118.61,0,0,1,8.06,15.3c2.72,6.43,3,8.92,3,10.23a12.12,12.12,0,0,1-2.09,6.63,14.44,14.44,0,0,1-5.56,5A17,17,0,0,1,289.18,392.68Zm-72.49-63.77h12A34.28,34.28,0,0,1,241.46,331a28,28,0,0,1,10.19,7.69A101.38,101.38,0,0,1,262.2,354l10.63,17.68c2.47,4.12,4.45,7.27,5.86,9.35a17.6,17.6,0,0,0,4.53,4.61,10.17,10.17,0,0,0,6,1.62,11.62,11.62,0,0,0,5.37-1.17A8.86,8.86,0,0,0,298,383a6.58,6.58,0,0,0,1.21-3.65c0-.59-.25-2.55-2.6-8.11A112.59,112.59,0,0,0,289,356.63a110.14,110.14,0,0,0-11.21-15.23A46.1,46.1,0,0,0,265,330.92l-6.57-3.49,7.27-1.59c10.61-2.31,18.57-6.23,23.68-11.64s7.53-12.54,7.53-21.55a35,35,0,0,0-2.28-12.58,30.06,30.06,0,0,0-6.6-10.29A30.62,30.62,0,0,0,278,263a36,36,0,0,0-10.72-2.9,129.92,129.92,0,0,0-15-.74H209.14c-4.95,0-8.48,1-10.51,3.05s-3,5.55-3,10.5V373.77c0,4.61.95,8.08,2.84,10.3s4.33,3.15,7.76,3.15a9.79,9.79,0,0,0,7.57-3.06c1.94-2.09,2.93-5.59,2.93-10.39Zm26.52-13.59H216.69v-41.5h27.24c9.58,0,15.92.71,19.39,2.18a19.25,19.25,0,0,1,12.14,18.34c0,5.31-1.39,9.6-4.11,12.75s-6.49,5.25-11.37,6.49A69.65,69.65,0,0,1,243.21,315.32Zm-21.06-5.46h21.06a64.4,64.4,0,0,0,15.43-1.57,16.33,16.33,0,0,0,8.58-4.77c1.84-2.14,2.78-5.22,2.78-9.18a14.14,14.14,0,0,0-2.32-8.1,14,14,0,0,0-6.47-5.21c-1.9-.8-6.43-1.75-17.28-1.75H222.15Z"/><path class="cls-6" d="M403.13,277.08H350.8v33.54h43.74q6.07,0,9.08,2.73a9.37,9.37,0,0,1,3,7.29,9.16,9.16,0,0,1-3,7.24c-2,1.79-5,2.69-9,2.69H350.8v43.2q0,8.22-3.71,12.2a13.45,13.45,0,0,1-19.14,0q-3.7-4-3.71-12.16V272.88a22.17,22.17,0,0,1,1.7-9.35,10.55,10.55,0,0,1,5.32-5.27,22.27,22.27,0,0,1,9.26-1.66h62.61q6.35,0,9.43,2.82a9.52,9.52,0,0,1,3.09,7.38,9.63,9.63,0,0,1-3.09,7.47Q409.47,277.08,403.13,277.08Z"/><path class="cls-4" d="M337.57,392.68a15.17,15.17,0,0,1-11.62-4.9c-2.95-3.19-4.44-7.91-4.44-14V272.88a24.83,24.83,0,0,1,2-10.51,13.24,13.24,0,0,1,6.66-6.59,25,25,0,0,1,10.39-1.91h62.61c4.91,0,8.7,1.19,11.27,3.53a13.19,13.19,0,0,1,0,18.88c-2.57,2.34-6.36,3.53-11.27,3.53h-49.6v28.08h41c4.73,0,8.41,1.16,10.91,3.44a12,12,0,0,1,3.89,9.31,11.83,11.83,0,0,1-4,9.29c-2.54,2.23-6.18,3.37-10.84,3.37h-41v40.47c0,6.17-1.49,10.9-4.44,14.06A15.12,15.12,0,0,1,337.57,392.68Zm2.95-133.35a19.89,19.89,0,0,0-8.12,1.41,7.88,7.88,0,0,0-4,3.95,19.68,19.68,0,0,0-1.44,8.19V373.77c0,4.69,1,8.16,3,10.31a10.73,10.73,0,0,0,15.14,0c2-2.12,3-5.6,3-10.34V327.84h46.47c3.29,0,5.72-.68,7.23-2a6.53,6.53,0,0,0,2.11-5.2,6.69,6.69,0,0,0-2.1-5.27c-1.47-1.34-3.91-2-7.24-2H348.07v-39h55.06c3.51,0,6.06-.7,7.59-2.1a7,7,0,0,0,2.2-5.45,6.84,6.84,0,0,0-2.2-5.36c-1.53-1.4-4.08-2.11-7.59-2.11Z"/><path class="cls-6" d="M505.53,372.87l-6.26-16.46H446l-6.26,16.82q-3.68,9.84-6.26,13.28c-1.73,2.29-4.57,3.44-8.5,3.44a12.49,12.49,0,0,1-8.86-3.66,11.25,11.25,0,0,1-3.84-8.32,18.78,18.78,0,0,1,.89-5.55c.6-1.9,1.58-4.56,2.95-8l33.54-85.14c1-2.44,2.1-5.38,3.45-8.81a44.55,44.55,0,0,1,4.29-8.54,17.42,17.42,0,0,1,6-5.5,18.4,18.4,0,0,1,9.17-2.1,18.6,18.6,0,0,1,9.26,2.1,17.77,17.77,0,0,1,6,5.41,38,38,0,0,1,3.84,7.11q1.58,3.81,4,10.15l34.26,84.61q4,9.66,4,14a11.59,11.59,0,0,1-3.8,8.36,12.46,12.46,0,0,1-9.17,3.8,11.81,11.81,0,0,1-5.36-1.12,10.91,10.91,0,0,1-3.76-3,27.78,27.78,0,0,1-3.26-5.9C507.36,377.24,506.37,374.9,505.53,372.87Zm-52.59-36.4h39.18l-19.77-54.11Z"/><path class="cls-4" d="M520.91,392.68a14.66,14.66,0,0,1-6.58-1.4,13.84,13.84,0,0,1-4.68-3.79A30.42,30.42,0,0,1,506,381q-1.75-4-3-7.08l0-.07-5.59-14.7H447.86l-5.6,15c-2.56,6.87-4.73,11.44-6.63,14-2.27,3-5.86,4.53-10.68,4.53a15.18,15.18,0,0,1-10.74-4.42A13.91,13.91,0,0,1,409.52,378a21.26,21.26,0,0,1,1-6.36c.62-2,1.61-4.66,3-8.17l37-93.92a47.48,47.48,0,0,1,4.56-9.07,20.25,20.25,0,0,1,6.92-6.36,21.11,21.11,0,0,1,10.51-2.45,21.33,21.33,0,0,1,10.6,2.45,20.43,20.43,0,0,1,6.89,6.24,40.56,40.56,0,0,1,4.13,7.62c1.06,2.59,2.41,6,4,10.22l34.23,84.55c2.84,6.82,4.22,11.75,4.22,15.07a14.26,14.26,0,0,1-4.6,10.29A15.2,15.2,0,0,1,520.91,392.68Zm-12.84-20.82q1.23,3,3,6.93a25.58,25.58,0,0,0,2.9,5.31,8.26,8.26,0,0,0,2.84,2.29,9.28,9.28,0,0,0,4.14.83,9.78,9.78,0,0,0,7.24-3,8.93,8.93,0,0,0,3-6.43c0-1.75-.66-5.43-3.81-13l-34.27-84.64c-1.59-4.2-2.92-7.59-4-10.13a35.53,35.53,0,0,0-3.57-6.6,15.26,15.26,0,0,0-5.09-4.59,16,16,0,0,0-7.91-1.74,15.8,15.8,0,0,0-7.82,1.74,14.65,14.65,0,0,0-5.07,4.65,41.75,41.75,0,0,0-4,8l-3.44,8.8-33.55,85.15c-1.35,3.35-2.31,6-2.88,7.78A15.94,15.94,0,0,0,415,378a8.53,8.53,0,0,0,3,6.34,9.72,9.72,0,0,0,7,2.91c3.06,0,5.12-.77,6.31-2.35s3-4.77,5.89-12.6l6.92-18.59h57.08ZM496,339.2h-47l23.27-64.86Zm-39.2-5.46h31.39l-15.84-43.36Z"/><polygon class="cls-6" points="145.61 470.57 81.11 470.57 111.44 436.4 145.61 436.4 145.61 470.57"/><path class="cls-4" d="M148.34,473.3H75l35.18-39.63h38.12Zm-61.15-5.46h55.69V439.13H112.67Z"/><polygon class="cls-6" points="472.95 470.57 537.45 470.57 507.12 436.4 472.95 436.4 472.95 470.57"/><path class="cls-4" d="M543.52,473.3h-73.3V433.67h38.13Zm-67.84-5.46h55.7l-25.49-28.71H475.68Z"/><rect class="cls-6" x="116.6" y="443.99" width="381.53" height="35.18"/><path class="cls-4" d="M500.86,481.9h-387V441.26h387Zm-381.53-5.46H495.4V446.72H119.33Z"/><path class="cls-4" d="M138.87,470.31V454.94h6.81a9,9,0,0,1,3.13.41,3.45,3.45,0,0,1,1.71,1.46,4.33,4.33,0,0,1,.64,2.32,3.86,3.86,0,0,1-1.06,2.76,5.35,5.35,0,0,1-3.27,1.42,5.07,5.07,0,0,1,1.22.77,10.66,10.66,0,0,1,1.69,2l2.68,4.19h-2.56l-2-3.2c-.59-.92-1.08-1.63-1.46-2.12a4.71,4.71,0,0,0-1-1,3,3,0,0,0-.92-.4,6,6,0,0,0-1.14-.08H140.9v6.83Zm2-8.59h4.38a6.63,6.63,0,0,0,2.18-.29,2.31,2.31,0,0,0,1.19-.92,2.43,2.43,0,0,0,.41-1.38,2.27,2.27,0,0,0-.79-1.79,3.69,3.69,0,0,0-2.5-.71H140.9Z"/><path class="cls-4" d="M153.73,462.82a8.34,8.34,0,0,1,2.05-6,7,7,0,0,1,5.31-2.17,7.35,7.35,0,0,1,3.84,1,6.56,6.56,0,0,1,2.6,2.84,9.17,9.17,0,0,1,.9,4.12,9.07,9.07,0,0,1-.94,4.19,6.4,6.4,0,0,1-2.68,2.79,7.66,7.66,0,0,1-3.73.95,7.26,7.26,0,0,1-3.88-1.05,6.76,6.76,0,0,1-2.59-2.86A8.65,8.65,0,0,1,153.73,462.82Zm2.1,0a6.12,6.12,0,0,0,1.49,4.38,5.22,5.22,0,0,0,7.53,0,6.55,6.55,0,0,0,1.48-4.59,7.88,7.88,0,0,0-.63-3.27,4.77,4.77,0,0,0-1.86-2.17,5,5,0,0,0-2.74-.78,5.21,5.21,0,0,0-3.72,1.49C156.34,458.89,155.83,460.54,155.83,462.85Z"/><path class="cls-4" d="M169.36,470.31l5.91-15.37h2.19l6.29,15.37h-2.32l-1.79-4.66h-6.43l-1.69,4.66ZM173.8,464H179l-1.6-4.26c-.49-1.29-.86-2.36-1.09-3.19a20.8,20.8,0,0,1-.83,2.94Z"/><path class="cls-4" d="M185.38,470.31V454.94h5.29a12.65,12.65,0,0,1,2.74.22,5.16,5.16,0,0,1,2.25,1.1,6.23,6.23,0,0,1,1.82,2.62,10.18,10.18,0,0,1,.61,3.66,10.78,10.78,0,0,1-.41,3.1,7.91,7.91,0,0,1-1.05,2.24,5.63,5.63,0,0,1-1.4,1.4,5.83,5.83,0,0,1-1.84.77,10.7,10.7,0,0,1-2.47.26Zm2-1.82h3.28a8,8,0,0,0,2.39-.28,3.31,3.31,0,0,0,1.38-.8,4.88,4.88,0,0,0,1.13-1.94,9.76,9.76,0,0,0,.4-3,7.23,7.23,0,0,0-.79-3.71,4,4,0,0,0-1.93-1.74,7.93,7.93,0,0,0-2.63-.31h-3.23Z"/><path class="cls-4" d="M206.79,470.31V454.94h3.06l3.64,10.88c.34,1,.58,1.77.73,2.28.18-.56.45-1.38.82-2.47l3.68-10.69h2.74v15.37h-2V457.44L215,470.31H213.2l-4.45-13.09v13.09Z"/><path class="cls-4" d="M223.05,470.31,229,454.94h2.19l6.29,15.37h-2.32l-1.79-4.66H226.9l-1.69,4.66Zm4.44-6.31h5.21l-1.6-4.26c-.49-1.29-.86-2.36-1.09-3.19a19.54,19.54,0,0,1-.83,2.94Z"/><path class="cls-4" d="M239.05,470.31V454.94h2.08L249.21,467V454.94h1.95v15.37h-2.09L241,458.23v12.08Z"/><path class="cls-4" d="M252.89,470.31l5.9-15.37H261l6.3,15.37H265l-1.79-4.66h-6.43l-1.69,4.66Zm4.43-6.31h5.22l-1.61-4.26c-.49-1.29-.85-2.36-1.09-3.19a18.43,18.43,0,0,1-.83,2.94Z"/><path class="cls-4" d="M276.1,464.28v-1.8h6.51v5.7a11.3,11.3,0,0,1-3.1,1.8,9.19,9.19,0,0,1-3.27.6,8.66,8.66,0,0,1-4.11-1,6.42,6.42,0,0,1-2.8-2.8,8.84,8.84,0,0,1-.94-4.1,9.43,9.43,0,0,1,.94-4.19,6.18,6.18,0,0,1,2.7-2.89,8.41,8.41,0,0,1,4.05-.95,8,8,0,0,1,3,.54,5,5,0,0,1,2.11,1.51,6.7,6.7,0,0,1,1.17,2.52l-1.84.5a5.8,5.8,0,0,0-.86-1.85,3.56,3.56,0,0,0-1.47-1.07,5.33,5.33,0,0,0-2.11-.41,6.34,6.34,0,0,0-2.42.43A4.46,4.46,0,0,0,272,458a5.31,5.31,0,0,0-1,1.52,8.06,8.06,0,0,0-.59,3.09,7.52,7.52,0,0,0,.71,3.44,4.5,4.5,0,0,0,2.06,2.05,6.39,6.39,0,0,0,2.88.68,6.82,6.82,0,0,0,2.58-.51,6.43,6.43,0,0,0,1.9-1.09v-2.86Z"/><path class="cls-4" d="M285.65,470.31V454.94h11.11v1.81h-9.08v4.71h8.51v1.8h-8.51v5.23h9.44v1.82Z"/><path class="cls-4" d="M299.87,470.31V454.94h3.06l3.64,10.88c.33,1,.58,1.77.73,2.28.18-.56.45-1.38.82-2.47l3.68-10.69h2.74v15.37h-2V457.44l-4.47,12.87h-1.83l-4.45-13.09v13.09Z"/><path class="cls-4" d="M317.86,470.31V454.94H329v1.81H319.9v4.71h8.5v1.8h-8.5v5.23h9.44v1.82Z"/><path class="cls-4" d="M332.12,470.31V454.94h2.09L342.29,467V454.94h1.95v15.37h-2.09l-8.07-12.08v12.08Z"/><path class="cls-4" d="M351.57,470.31V456.75H346.5v-1.81h12.19v1.81H353.6v13.56Z"/><path class="cls-4" d="M366.7,470.31V454.94h2v15.37Z"/><path class="cls-4" d="M372.3,470.31V454.94h2.09L382.46,467V454.94h2v15.37h-2.09l-8.07-12.08v12.08Z"/><path class="cls-4" d="M388.18,470.31V454.94h2v15.37Z"/><path class="cls-4" d="M397.71,470.31V456.75h-5.07v-1.81h12.19v1.81h-5.09v13.56Z"/><path class="cls-4" d="M407.26,470.31V454.94h2v15.37Z"/><path class="cls-4" d="M411.19,470.31l5.91-15.37h2.19l6.29,15.37h-2.32l-1.79-4.66H415l-1.69,4.66Zm4.44-6.31h5.21l-1.6-4.26c-.49-1.29-.86-2.36-1.09-3.19a20.8,20.8,0,0,1-.83,2.94Z"/><path class="cls-4" d="M429.52,470.31V456.75h-5.06v-1.81h12.18v1.81h-5.08v13.56Z"/><path class="cls-4" d="M439.08,470.31V454.94h2v15.37Z"/><path class="cls-4" d="M449.09,470.31l-6-15.37h2.21l4,11.16q.48,1.35.81,2.52c.24-.84.51-1.68.83-2.52l4.15-11.16h2.08l-6,15.37Z"/><path class="cls-4" d="M459.06,470.31V454.94h11.12v1.81H461.1v4.71h8.5v1.8h-8.5v5.23h9.44v1.82Z"/></svg>
